<?xml version="1.0" encoding="utf-8"?>
<!-- Generator: Adobe Illustrator 22.0.1, SVG Export Plug-In . SVG Version: 6.00 Build 0)  -->
<svg version="1.1" id="レイヤー_1" xmlns="http://www.w3.org/2000/svg" xmlns:xlink="http://www.w3.org/1999/xlink" x="0px"
	 y="0px" viewBox="0 0 145.6 15.1" style="enable-background:new 0 0 145.6 15.1;" xml:space="preserve">
<title>アートボード 1</title>
<g>
	<path d="M7.5,7l3.8,1.8C11.7,9,12,9.4,12,9.8c0,0.4-0.4,0.6-0.7,0.4L6.6,8C6.4,7.9,6.2,7.9,6.1,8l-5.5,2.6
		c-0.3,0.2-0.7-0.1-0.7-0.4c0-0.5,0.3-0.9,0.7-1.1L4.9,7C5.1,7,5.1,6.8,5,6.7L3.2,4.8C3.1,4.7,3,4.7,2.9,4.8L2.3,5.5
		C2,5.9,1.5,6.2,0.9,6.2c-0.3,0-0.5-0.4-0.3-0.7l2.3-2.9C3.3,2.1,4,1.8,4.7,1.8h4.7c0.5,0,0.8,0.5,0.5,0.9L7.4,6.6
		C7.3,6.7,7.4,6.9,7.5,7z M2,13.8v-2.6c0-0.6,0.5-1.1,1.1-1.1h6.2c0.6,0,1.1,0.5,1.1,1.1v2.6c0,0.6-0.5,1.1-1.1,1.1H3
		C2.4,14.8,2,14.4,2,13.8z M3.3,11.8v1.5c0,0.1,0.1,0.3,0.3,0.3h5.1c0.2,0,0.3-0.1,0.3-0.3v-1.5c0-0.2-0.1-0.3-0.3-0.3H3.6
		C3.5,11.5,3.3,11.6,3.3,11.8z M4.1,3.4C4,3.5,4,3.6,4.1,3.7L6,5.8c0.1,0.1,0.3,0.1,0.3,0l1.5-2.4c0.1-0.1,0-0.2-0.1-0.2H4.5
		C4.3,3.2,4.2,3.2,4.1,3.4z"/>
	<path d="M17.7,5.4C17.7,5.7,17.4,6,17,6c-0.1,0-0.1,0.1-0.1,0.2l0.7,2.3c0.1,0.3-0.1,0.6-0.4,0.6h0c-0.4,0-0.7-0.2-0.8-0.5
		c0,0,0,0,0,0l0,5.8c0,0.3-0.3,0.6-0.6,0.6c-0.3,0-0.6-0.3-0.6-0.6l0-4.2c0,0-0.1-0.1-0.1,0l-0.2,0.7c-0.1,0.4-0.4,0.6-0.8,0.6
		c-0.3,0-0.5-0.3-0.5-0.6l1.2-4.5c0-0.1-0.1-0.3-0.2-0.3H14c-0.4,0-0.6-0.3-0.6-0.6s0.3-0.6,0.6-0.6h0.7c0.2,0,0.3-0.1,0.3-0.3V3.2
		C15.1,3.1,15,3,14.8,3l-0.4,0c-0.3,0.1-0.6-0.2-0.6-0.5c0-0.4,0.3-0.7,0.6-0.8l2.2-0.4c0.3,0,0.6,0.2,0.6,0.5
		c0,0.4-0.3,0.7-0.6,0.8l-0.2,0c-0.1,0-0.2,0.1-0.2,0.3v1.5c0,0.2,0.1,0.3,0.3,0.3H17C17.4,4.7,17.7,5,17.7,5.4z M27.4,4.1
		c0,0.3-0.2,0.5-0.5,0.5h-3.1c-0.2,0-0.3,0.1-0.3,0.3v0.2c0,0.2,0.1,0.3,0.3,0.3h1.7c0.6,0,1.2,0.5,1.2,1.2v2.6
		c0,0.6-0.5,1.2-1.2,1.2h-1.7c-0.2,0-0.3,0.1-0.3,0.3V11c0,0.2,0.1,0.3,0.3,0.3h2c0.3,0,0.5,0.2,0.5,0.5c0,0.3-0.2,0.5-0.5,0.5h-2
		c-0.2,0-0.3,0.1-0.3,0.3v0.4c0,0.2,0.1,0.3,0.3,0.3h3c0.3,0,0.5,0.2,0.5,0.5c0,0.3-0.2,0.5-0.5,0.5h-7.7c-0.3,0-0.5-0.2-0.5-0.5
		c0-0.3,0.2-0.5,0.5-0.5h3c0.2,0,0.3-0.1,0.3-0.3v-0.4c0-0.2-0.1-0.3-0.3-0.3h-1.9c-0.3,0-0.5-0.2-0.5-0.5c0-0.3,0.2-0.5,0.5-0.5
		h1.9c0.2,0,0.3-0.1,0.3-0.3v-0.4c0-0.2-0.1-0.3-0.3-0.3h-1.7c-0.6,0-1.2-0.5-1.2-1.2V6.6c0-0.6,0.5-1.2,1.2-1.2h1.7
		c0.2,0,0.3-0.1,0.3-0.3V4.9c0-0.2-0.1-0.3-0.3-0.3h-3.2c-0.3,0-0.5-0.2-0.5-0.5s0.2-0.5,0.5-0.5h3.2c0.2,0,0.3-0.1,0.3-0.3V3
		c0-0.2-0.1-0.3-0.3-0.3l-1.9,0.1c-0.3,0-0.5-0.2-0.5-0.5s0.2-0.5,0.5-0.6l5.6-0.4c0.3,0,0.5,0.2,0.5,0.5c0,0.3-0.2,0.6-0.5,0.6
		l-2,0.1c-0.2,0-0.3,0.2-0.3,0.3v0.3c0,0.2,0.1,0.3,0.3,0.3h3.1C27.2,3.5,27.4,3.8,27.4,4.1z M22.4,6.8c0-0.2-0.1-0.3-0.3-0.3h-1.5
		c-0.2,0-0.3,0.1-0.3,0.3v0.3c0,0.2,0.1,0.3,0.3,0.3h1.5c0.2,0,0.3-0.1,0.3-0.3V6.8z M20.3,9c0,0.2,0.1,0.3,0.3,0.3h1.5
		c0.2,0,0.3-0.1,0.3-0.3V8.7c0-0.2-0.1-0.3-0.3-0.3h-1.5c-0.2,0-0.3,0.1-0.3,0.3V9z M25.5,6.8c0-0.2-0.1-0.3-0.3-0.3h-1.5
		c-0.2,0-0.3,0.1-0.3,0.3v0.3c0,0.2,0.1,0.3,0.3,0.3h1.5c0.2,0,0.3-0.1,0.3-0.3V6.8z M23.4,9c0,0.2,0.1,0.3,0.3,0.3h1.5
		c0.2,0,0.3-0.1,0.3-0.3V8.7c0-0.2-0.1-0.3-0.3-0.3h-1.5c-0.2,0-0.3,0.1-0.3,0.3V9z"/>
	<path d="M40.6,11.1c-0.1,0.2-0.4,0.4-0.9,0.2c-0.7-0.4-5.2-3.2-6.3-4c-0.6-0.5-0.9-0.2-1.2,0.1c-0.4,0.4-1.4,1.5-1.9,2.1
		c-0.3,0.3-0.7,0.3-0.9,0.1c-0.2-0.2-0.3-0.7,0-0.9c0.5-0.6,1.8-1.9,2.2-2.4c0.4-0.5,1.4-1,2.6-0.1c2,1.5,6.3,4,6.3,4
		C40.6,10.4,40.8,10.7,40.6,11.1z M37.8,6.2C37.7,6.2,37.7,6.2,37.8,6.2c-0.3,0-0.5-0.2-0.5-0.5c0-0.3,0.2-0.4,0.5-0.4
		c0.2,0,0.3,0,0.4-0.1c0.1-0.1,0.2-0.3,0.2-0.5c0-0.4-0.3-0.6-0.6-0.6c-0.3,0-0.6,0.2-0.6,0.7c0,0.1,0,0.2,0.1,0.3
		c0.1,0.2,0.1,0.4,0,0.6c-0.2,0.1-0.5,0.1-0.6,0c-0.2-0.3-0.3-0.7-0.3-0.9c0.1-0.8,0.7-1.4,1.5-1.4c0.8,0,1.5,0.7,1.5,1.5
		c0,0.4-0.2,0.8-0.5,1.1C38.5,6.1,38.1,6.2,37.8,6.2z"/>
	<path d="M45.2,7.3c0.2,0.3,0.3,0.3,1.8,0.2c1.8-0.1,5.7-0.3,6.4-0.2C54,7.4,54.1,7.8,54.1,8c0,0.3-0.1,0.7-0.7,0.7
		C52,8.6,48.6,8.6,47,8.8c-1.6,0.1-2.2,0-2.7-0.5c-0.3-0.4-0.1-0.8,0-0.9C44.6,7.1,45,7,45.2,7.3z"/>
	<path d="M62.5,8.1c0.2,0.3,0.2,0.7-0.1,0.9c-0.1,0.1-0.3,0.2-0.4,0.2c-0.2,0-0.4-0.1-0.5-0.3c-0.4-0.3-1.8-0.5-2.2-0.5
		c-0.3,0-0.6-0.3-0.7-0.6c0-0.4,0.3-0.7,0.6-0.7C60.2,7.1,61.8,7.3,62.5,8.1z M60.4,4.8c-0.1,0-0.3,0-0.5-0.1
		c-0.2-0.1-0.4-0.3-0.4-0.6c0-0.3,0.3-0.6,0.6-0.7C60.7,3.5,62.1,4,63,5c0.2,0.3,0.1,0.7-0.1,0.9c-0.3,0.2-0.7,0.1-0.9-0.1
		C61.5,5.2,60.8,4.9,60.4,4.8z M60.3,12.9c-0.4,0-0.7-0.3-0.7-0.6c0-0.3,0.2-0.7,0.5-0.7c0.5-0.1,1.8-0.5,3.4-1.5
		c1.9-1.1,3.4-2.3,4.2-3.5c0.2-0.3,0.7-0.3,0.9-0.2C69,6.7,69,7.1,68.8,7.4C66.6,10.5,61.9,12.6,60.3,12.9z M67.3,2.9
		c0.4,0.3,0.6,0.5,0.7,0.8c0.1,0.3,0.1,0.6-0.2,0.8c-0.3,0.1-0.7,0-0.8-0.4c-0.1-0.2-0.3-0.5-0.7-0.8C66,3.2,65.8,2.9,66,2.7
		C66.3,2.2,67,2.7,67.3,2.9z M68.7,2.1c0.4,0.3,0.6,0.6,0.7,0.8c0.1,0.3,0.1,0.6-0.2,0.8c-0.4,0.1-0.7-0.1-0.8-0.4
		c-0.1-0.2-0.3-0.5-0.7-0.8c-0.2-0.2-0.4-0.5-0.3-0.7C67.7,1.4,68.4,1.9,68.7,2.1z"/>
</g>
</svg>
