<?xml version="1.0" encoding="utf-8"?><svg xmlns="http://www.w3.org/2000/svg" xmlns:xlink="http://www.w3.org/1999/xlink"><symbol id="logo" viewBox="0 0 512.2 263.6" xmlns="http://www.w3.org/2000/svg"><style>.ast0,.ast1,.ast2,.ast3,.ast4,.ast5,.ast6,.ast7,.ast8,.ast9{fill:#008a83;stroke:#fff;stroke-width:.9921;stroke-linecap:round;stroke-linejoin:round;stroke-miterlimit:10}.ast1,.ast2,.ast3,.ast4,.ast5,.ast6,.ast7,.ast8,.ast9{fill:#800073}.ast2,.ast3,.ast4,.ast5,.ast6,.ast7,.ast8,.ast9{fill:#7baa17}.ast3,.ast4,.ast5,.ast6,.ast7,.ast8,.ast9{fill:#005aa0}.ast4,.ast5,.ast6,.ast7,.ast8,.ast9{fill:#00873c}.ast5,.ast6,.ast7,.ast8,.ast9{fill:#c70044}.ast6,.ast7,.ast8,.ast9{fill:#d28300}.ast7,.ast8,.ast9{fill:#181878}.ast8,.ast9{fill:#dfd000}.ast9{fill:#008dcb}.ast10{enable-background:new}.ast11{fill:#007d7a}</style><g id="alogo"><g id="a_x30_"><path id="a_x31_" class="ast0" d="M185.1 122.6c-.2-1.7-.4-3.5-.6-5.2-.2-1.1-1.2-1.9-2.3-1.7h-.1c-1.1.2-1.8 1.2-1.6 2.3l.6 4.8a79.613 79.613 0 0 1 0 13.8c-.2 2.3-.5 4.6-.9 6.8-.4 2.3-.9 4.5-1.5 6.7s-1.3 4.4-2.1 6.5c-.8 2.2-1.7 4.3-2.6 6.3-1 2.1-2 4.1-3.2 6.1-1.1 2-2.4 3.9-3.7 5.8-1.3 1.9-2.7 3.7-4.2 5.4-1.5 1.8-3 3.4-4.6 5.1-1.6 1.6-3.3 3.2-5.1 4.6-1.8 1.5-3.6 2.9-5.4 4.2-1.9 1.3-3.8 2.5-5.8 3.7-1.4.8-2.8 1.6-4.3 2.3-1 .5-1.4 1.7-1 2.7v.1c.5 1 1.7 1.5 2.7 1 1.6-.8 3.1-1.6 4.6-2.5 2.1-1.2 4.1-2.5 6.1-3.9s3.9-2.9 5.7-4.4 3.6-3.2 5.3-4.9 3.3-3.5 4.9-5.3c1.5-1.8 3-3.8 4.4-5.7 1.4-2 2.7-4 3.9-6.1s2.3-4.2 3.3-6.4 1.9-4.4 2.8-6.7c.8-2.3 1.5-4.6 2.2-6.9.6-2.3 1.1-4.7 1.6-7.1.4-2.4.7-4.7.9-7.2.2-2.4.3-4.8.3-7.2 0-2.3-.1-4.7-.3-7z"/><path id="a_x37_" class="ast0" d="M140.6 161.7c.9-1.1 1.8-2.3 2.6-3.4.8-1.2 1.6-2.4 2.3-3.7s1.4-2.5 2-3.8 1.2-2.6 1.7-4 .9-2.7 1.3-4.1c.4-1.4.7-2.8.9-4.2s.4-2.8.6-4.3c.1-1.4.2-2.9.2-4.3 0-1.5-.1-2.9-.2-4.3-.1-1.5-.3-2.9-.6-4.3-.1-.8-.3-1.5-.4-2.3-.2-1.1-1.4-1.7-2.5-1.5l-2 .5-4 1.1-4 1.1-2.1.6c-1 .3-1.7 1.3-1.5 2.3.1.3.1.7.2 1 .2.9.3 1.9.4 2.9.1 1 .1 1.9.1 2.9s0 1.9-.1 2.9-.2 1.9-.4 2.9-.4 1.9-.6 2.8c-.3.9-.5 1.9-.9 2.8-.3.9-.7 1.8-1.1 2.7-.4.9-.9 1.7-1.3 2.6-.5.8-1 1.6-1.6 2.4-.5.8-1.1 1.6-1.8 2.3-.6.7-1.3 1.4-2 2.1-.7.7-1.4 1.3-2.1 2-.7.6-1.5 1.2-2.3 1.8-.3.2-.6.4-.8.6-.9.6-1.1 1.8-.6 2.7l1.1 1.9 2.1 3.6 2.1 3.6 1 1.8c.6 1 1.8 1.3 2.8.7.6-.4 1.3-.8 1.9-1.3 1.2-.8 2.3-1.7 3.4-2.6 1.1-.9 2.2-1.9 3.2-2.9s2.1-2.5 3-3.6z"/></g><path id="a_x35_" class="ast1" d="M160.3 134.8l-4.1-.4-2.1-.2c-1.1-.1-2.1.7-2.2 1.8-.1.8-.2 1.6-.3 2.3l-.9 4.2c-.4 1.4-.8 2.8-1.3 4.1-.5 1.4-1.1 2.7-1.7 4-.6 1.3-1.3 2.6-2 3.8-.7 1.3-1.5 2.5-2.3 3.7s-1.7 2.3-2.6 3.4a44.038 44.038 0 0 1-6.1 6.1c-1.1.9-2.3 1.8-3.4 2.6-1.2.8-2.4 1.6-3.7 2.3s-2.5 1.4-3.8 2-2.6 1.2-4 1.7-2.7.9-4.1 1.3c-1.4.4-2.8.7-4.2.9-1.4.2-2.8.4-4.3.6-1.4.1-2.9.2-4.3.2s-2.9-.1-4.3-.2c-1.5-.1-2.9-.3-4.3-.6-.8-.1-1.5-.3-2.3-.5-1.1-.2-2.2.4-2.4 1.4l-.6 2.1-1.1 4-.5 2c-.3 1.1.4 2.2 1.5 2.5 1.1.2 2.2.5 3.3.7 1.8.3 3.6.5 5.4.7s3.6.2 5.4.2 3.6-.1 5.4-.2c1.8-.2 3.6-.4 5.4-.7s3.6-.7 5.3-1.2c1.8-.5 3.5-1 5.2-1.6s3.4-1.3 5-2.1 3.2-1.6 4.8-2.5 3.1-1.9 4.6-2.9 2.9-2.1 4.3-3.3a70.06 70.06 0 0 0 7.7-7.7c1.2-1.4 2.3-2.8 3.3-4.3s2-3 2.9-4.6 1.7-3.2 2.5-4.8 1.5-3.3 2.1-5 1.2-3.4 1.6-5.2c.5-1.7.9-3.5 1.2-5.3.2-1.1.4-2.2.5-3.3s-.7-2.2-1.8-2.3l-2.7.3z"/><path id="a_x32_" class="ast2" d="M180.9 122.8c-.2-2.3-.5-4.6-.9-6.8-.4-2.3-.9-4.5-1.5-6.7s-1.3-4.4-2.1-6.5c-.8-2.2-1.7-4.3-2.6-6.3-1-2.1-2-4.1-3.2-6.1-1.1-2-2.4-3.9-3.7-5.8s-2.7-3.7-4.2-5.4c-1.5-1.8-3-3.4-4.6-5.1-1.6-1.6-3.3-3.2-5.1-4.6-1.8-1.5-3.6-2.9-5.4-4.2-1.9-1.3-3.8-2.5-5.8-3.7-2-1.1-4-2.2-6.1-3.2s-4.2-1.8-6.3-2.6c-2.1-.8-4.3-1.5-6.6-2.1-2.2-.6-4.4-1.1-6.7-1.5-2.2-.4-4.5-.7-6.8-.9s-4.6-.3-6.9-.3-4.6.1-6.9.3-4.6.5-6.8.9c-2.3.4-4.5.9-6.7 1.5-1.6.4-3.1.9-4.6 1.4-1.1.4-1.6 1.5-1.2 2.6l.7 2 1.4 3.9 1.4 3.9.7 2c.4 1 1.5 1.6 2.5 1.2 1.1-.4 2.2-.7 3.4-1 1.7-.5 3.5-.9 5.3-1.2 1.8-.3 3.6-.5 5.4-.7s3.6-.2 5.4-.2 3.6.1 5.4.2c1.8.2 3.6.4 5.4.7 1.8.3 3.6.7 5.3 1.2 1.8.5 3.5 1 5.2 1.6s3.4 1.3 5 2.1 3.2 1.6 4.8 2.5 3.1 1.9 4.6 2.9 2.9 2.1 4.3 3.3a70.06 70.06 0 0 1 7.7 7.7c1.2 1.4 2.3 2.8 3.3 4.3s2 3 2.9 4.6 1.7 3.2 2.5 4.8c.8 1.6 1.5 3.3 2.1 5s1.2 3.4 1.6 5.2c.5 1.7.9 3.5 1.2 5.3s.5 3.6.7 5.4c.1 1.2.2 2.3.2 3.5 0 1.1.9 1.9 2 1.9H179.1c1.1 0 2-.9 2-2 .1-1.8 0-3.4-.2-5z"/><path id="a_x31_5" class="ast2" d="M118.8 126.9c-.1-.5-.2-1-.3-1.4-.1-.5-.3-.9-.4-1.4-.2-.5-.4-.9-.6-1.3s-.4-.9-.7-1.3c-.2-.4-.5-.8-.8-1.2-.3-.4-.6-.8-.9-1.1-.3-.4-.6-.7-1-1.1-.3-.3-.7-.7-1.1-1l-1.2-.9c-.4-.3-.8-.5-1.2-.8-.4-.2-.8-.5-1.3-.7-.4-.2-.9-.4-1.3-.6-.5-.2-.9-.3-1.4-.4s-.9-.2-1.4-.3c-.5-.1-.9-.2-1.4-.2s-1-.1-1.4-.1c-.5 0-1 0-1.4.1-.5 0-1 .1-1.4.2-.5.1-.9.2-1.4.3-.5.1-.9.3-1.4.4-.5.2-.9.4-1.3.6s-.9.4-1.3.7c-.4.2-.8.5-1.2.8l-1.2.9c-.4.3-.7.6-1.1 1-.3.3-.7.7-1 1.1s-.6.7-.9 1.1-.5.8-.8 1.2c0 .1-.1.1-.1.2-.3.6-.1 1.3.5 1.6l1.7.8c.5.3 1.2 0 1.5-.5l.6-.9c.2-.3.4-.6.7-.9.2-.3.5-.5.7-.8.3-.3.5-.5.8-.7s.6-.5.9-.7l.9-.6c.3-.2.6-.4 1-.5.3-.2.7-.3 1-.4s.7-.2 1-.3c.3-.1.7-.2 1.1-.2.4-.1.7-.1 1.1-.1s.7-.1 1.1-.1.7 0 1.1.1c.4 0 .7.1 1.1.1.4.1.7.1 1.1.2s.7.2 1 .3c.3.1.7.3 1 .4.3.2.6.3 1 .5l.9.6c.3.2.6.4.9.7.3.2.5.5.8.7.3.3.5.5.7.8s.5.6.7.9l.6.9c.2.3.4.6.5 1 .2.3.3.7.4 1s.2.7.3 1c.1.3.2.7.2 1.1.1.4.1.7.1 1.1s.1.7.1 1.1c0 .4 0 .7-.1 1.1 0 .4-.1.7-.1 1.1-.1.4-.1.7-.2 1.1-.1.4-.2.7-.3 1-.1.3-.3.7-.4 1s-.3.7-.5 1l-.6.9c-.2.3-.4.6-.7.9-.4.5-.4 1.1.1 1.6l1.3 1.3c.5.5 1.3.5 1.7-.1 0-.1.1-.1.1-.2.3-.4.6-.7.9-1.1.3-.4.5-.8.8-1.2.2-.4.5-.8.7-1.3.2-.4.4-.9.6-1.3.2-.5.3-.9.4-1.4s.2-.9.3-1.4c.1-.5.2-.9.2-1.4s.1-1 .1-1.4c0-.5 0-1-.1-1.4-.2-.9-.3-1.3-.4-1.8z"/><path id="a_x31_3" class="ast3" d="M111.1 161.8l-1.1-4-.6-2.1c-.3-1-1.3-1.6-2.3-1.5h-.3c-.7.1-1.4.2-2.2.3-.7.1-1.4.1-2.2.1-.7 0-1.4 0-2.2-.1-.7-.1-1.4-.2-2.2-.3-.7-.1-1.4-.3-2.1-.5l-2.1-.6c-.7-.3-1.4-.5-2-.8-.7-.3-1.3-.6-1.9-1s-1.2-.7-1.8-1.2c-.6-.4-1.2-.9-1.7-1.3-.6-.5-1.1-1-1.6-1.5s-1-1-1.5-1.6l-.2-.2c-.7-.8-1.9-1-2.7-.4l-1.8 1.3-3.4 2.4-1.7 1.2c-1 .7-1.2 2-.4 2.9.2.3.5.6.7.9.7.8 1.4 1.6 2.2 2.4.8.8 1.6 1.5 2.4 2.2s1.7 1.4 2.6 2l2.7 1.8c.9.5 1.9 1 2.9 1.5s2 .9 3 1.2c1 .4 2.1.7 3.1 1s2.1.5 3.2.7 2.1.3 3.2.4c1.1.1 2.2.1 3.2.1 1.1 0 2.2 0 3.2-.1 1.1-.1 2.2-.2 3.2-.4.4-.1.7-.1 1.1-.2 1.2-.2 1.9-1.4 1.5-2.5l-.2-2.1z"/><path id="a_x31_2" class="ast4" d="M96.1 105.8l-1.1-4-1.1-4-1.1-4-.5-2c-.3-1.1-1.5-1.7-2.6-1.4-.5.2-.9.3-1.4.5-1.1.4-2.3.9-3.3 1.4-1.1.5-2.2 1.1-3.2 1.7s-2.1 1.3-3 1.9c-1 .7-1.9 1.4-2.9 2.2l-2.7 2.4c-.9.9-1.7 1.7-2.4 2.7-.8.9-1.5 1.9-2.2 2.9s-1.3 2-1.9 3-1.2 2.1-1.7 3.2-1 2.2-1.4 3.3c-.4 1.1-.8 2.3-1.1 3.4-.3 1.2-.6 2.3-.8 3.5s-.4 2.4-.5 3.6-.2 2.4-.2 3.6.1 2.4.2 3.6c.1 1.2.3 2.4.5 3.6.2 1.2.5 2.4.8 3.5.3 1.2.7 2.3 1.1 3.4.2.5.3.9.5 1.4.4 1.1 1.7 1.6 2.7 1.1l1.9-.9 3.8-1.8 3.8-1.7 3.8-1.8 2.7-1.3c.6-.3.8-.9.6-1.5-.1-.2-.2-.4-.3-.7-.2-.6-.4-1.1-.5-1.7-.2-.6-.3-1.2-.4-1.8s-.2-1.2-.2-1.8c-.1-.6-.1-1.2-.1-1.8s0-1.2.1-1.8.1-1.2.2-1.8c.1-.6.2-1.2.4-1.8.2-.6.3-1.2.5-1.7.2-.6.4-1.1.7-1.7.3-.5.5-1.1.8-1.6s.6-1 1-1.5c.3-.5.7-1 1.1-1.4.4-.5.8-.9 1.2-1.3.4-.4.9-.8 1.3-1.2.5-.4.9-.8 1.4-1.1.5-.3 1-.7 1.5-1s1.1-.6 1.6-.8c.5-.3 1.1-.5 1.7-.7.2-.1.4-.2.7-.2.6-.2.9-.8.8-1.4l-.8-2.7z"/><path id="a_x39_" class="ast5" d="M149.2 102.8c-.8-1.4-1.6-2.7-2.5-4s-1.9-2.5-2.9-3.7a53.089 53.089 0 0 0-6.7-6.7c-1.2-1-2.4-2-3.7-2.9s-2.6-1.7-4-2.5-2.7-1.5-4.2-2.2c-1.4-.7-2.9-1.3-4.3-1.8-1.5-.5-3-1-4.5-1.4s-3-.7-4.6-1c-1.5-.3-3.1-.5-4.7-.6-1.5-.1-3.1-.2-4.7-.2s-3.1.1-4.7.2-3.1.3-4.7.6c-1.5.3-3.1.6-4.6 1s-3 .9-4.5 1.4-2.9 1.1-4.3 1.8-2.8 1.4-4.2 2.2c-1.4.8-2.7 1.6-4 2.5s-2.5 1.8-3.7 2.9a53.089 53.089 0 0 0-6.7 6.7c-.6.7-1.1 1.4-1.7 2.1-.7.9-.5 2.2.5 2.8l1.7 1.2 3.4 2.4 1.8 1.2c.9.6 2.1.5 2.7-.4.4-.5.7-.9 1.1-1.3l2.4-2.7c.8-.9 1.7-1.7 2.7-2.4.9-.8 1.9-1.5 2.9-2.2s2-1.3 3-1.9 2.1-1.2 3.2-1.7 2.2-1 3.3-1.4c1.1-.4 2.3-.8 3.4-1.1 1.2-.3 2.3-.6 3.5-.8 1.2-.2 2.4-.4 3.6-.5s2.4-.2 3.6-.2 2.4.1 3.6.2 2.4.3 3.6.5 2.4.5 3.5.8c1.2.3 2.3.7 3.4 1.1s2.3.9 3.3 1.4c1.1.5 2.2 1.1 3.2 1.7s2.1 1.3 3 1.9c1 .7 1.9 1.4 2.9 2.2l2.7 2.4c.9.9 1.7 1.7 2.4 2.7.8.9 1.5 1.9 2.2 2.9s1.3 2 1.9 3c.3.5.6 1 .8 1.5.5.9 1.7 1.3 2.6.9l2-.9 3.7-1.7 1.9-.9c1-.5 1.5-1.7 1-2.7.2-.8-.2-1.6-.6-2.4z"/><g id="amazenta"><path id="a_x31_0" class="ast6" d="M118.8 174.5c-.4-1-1.5-1.6-2.5-1.2-.6.2-1.3.4-1.9.6l-3.9.9c-1.3.2-2.6.4-3.9.5s-2.6.2-4 .2c-1.3 0-2.7-.1-4-.2-1.3-.1-2.6-.3-3.9-.5s-2.6-.5-3.9-.9c-1.3-.3-2.6-.7-3.8-1.2-1.3-.5-2.5-1-3.7-1.5-1.2-.6-2.4-1.2-3.5-1.8-1.2-.7-2.3-1.4-3.4-2.1-1.1-.8-2.1-1.6-3.2-2.4-1-.8-2-1.7-2.9-2.7-.9-.9-1.8-1.9-2.7-2.9-.9-1-1.7-2.1-2.4-3.2-.8-1.1-1.5-2.2-2.1-3.3-.7-1.1-1.3-2.3-1.8-3.5-.6-1.2-1.1-2.4-1.5-3.7-.5-1.2-.8-2.5-1.2-3.8l-.9-3.9c-.2-1.3-.4-2.6-.5-3.9-.1-1.3-.2-2.6-.2-4 0-1.3.1-2.7.2-4 .1-1.3.3-2.6.5-3.9.1-.7.2-1.3.4-2 .2-1.1-.4-2.2-1.4-2.4h-.1c-1.1-.3-2.2.4-2.5 1.5-.2.7-.3 1.5-.4 2.3-.2 1.4-.4 2.8-.6 4.3-.1 1.4-.2 2.9-.2 4.3 0 1.5.1 2.9.2 4.3.1 1.5.3 2.9.6 4.3l.9 4.2c.4 1.4.8 2.8 1.3 4.1.5 1.4 1.1 2.7 1.7 4 .6 1.3 1.3 2.6 2 3.8.7 1.3 1.5 2.5 2.3 3.7s1.7 2.3 2.6 3.4a44.038 44.038 0 0 0 6.1 6.1c1.1.9 2.3 1.8 3.4 2.6 1.2.8 2.4 1.6 3.7 2.3 1.2.7 2.5 1.4 3.8 2s2.6 1.2 4 1.7 2.7.9 4.1 1.3c1.4.4 2.8.7 4.2.9 1.4.3 2.8.4 4.3.6 1.4.1 2.9.2 4.3.2s2.9-.1 4.3-.2c1.5-.1 2.9-.3 4.3-.6s2.9-.6 4.2-.9c.7-.2 1.5-.4 2.2-.6 1.1-.3 1.6-1.5 1.2-2.6l.2-.2z"/><path id="a_x31_6" class="ast6" d="M87.9 138.1c.2.4.5.8.8 1.2s.6.8.9 1.1c.3.4.6.7 1 1.1.3.3.7.7 1.1 1l1.2.9c.4.3.8.5 1.2.8.4.2.8.5 1.3.7.4.2.9.4 1.3.6.5.2.9.3 1.4.4.5.1.9.2 1.4.3s.9.2 1.4.2h.2c.7.1 1.2-.5 1.2-1.2v-7h-.7c-.2 0-.5-.1-.7-.1s-.5-.1-.7-.2c-.2-.1-.5-.1-.7-.2-.2-.1-.5-.2-.7-.3l-.6-.3c-.2-.1-.4-.2-.6-.4-.2-.1-.4-.3-.6-.4-.2-.2-.4-.3-.5-.5-.2-.2-.3-.4-.5-.5-.2-.2-.3-.4-.4-.6-.1-.2-.3-.4-.4-.6l-.3-.6c-.1-.2-.2-.4-.3-.7l-3.9 1.4-2.8 1c-.6.2-.9.9-.7 1.6 0 .1.1.1.1.2.1.2.3.6.6 1.1z"/></g><g id="acyan"><path id="a_x31_4" class="ast7" d="M127.3 127.6c-.1-.7-.2-1.4-.3-2.2-.1-.3-.1-.6-.2-1-.1-.6-.8-1-1.4-.9l-2.9.8-2.9.8c-.6.2-.9.7-.8 1.3 0 .1 0 .3.1.4.1.5.2.9.2 1.4 0 .5.1 1 .1 1.4 0 .5 0 1-.1 1.4 0 .5-.1 1-.2 1.4-.1.5-.2 1-.3 1.4-.1.5-.3.9-.4 1.4-.2.5-.4.9-.6 1.3-.2.4-.4.9-.7 1.3-.2.4-.5.8-.8 1.2s-.6.8-.9 1.1c-.3.4-.6.7-1 1.1-.3.3-.7.7-1.1 1l-1.2.9c-.4.3-.8.5-1.2.8-.4.2-.8.5-1.3.7-.4.2-.9.4-1.3.6-.5.2-.9.3-1.4.4-.5.1-.9.2-1.4.3s-.9.2-1.4.2-1 .1-1.4.1c-.5 0-1 0-1.4-.1-.5 0-1-.1-1.4-.2-.5-.1-.9-.2-1.4-.3s-.9-.3-1.4-.4c-.5-.2-.9-.4-1.3-.6-.4-.2-.9-.4-1.3-.7-.4-.2-.8-.5-1.2-.8-.1-.1-.2-.1-.3-.2-.5-.4-1.2-.3-1.5.2l-1.9 2.3-1.9 2.3c-.4.5-.3 1.3.2 1.7.3.2.5.4.8.6l1.8 1.2c.6.4 1.3.7 1.9 1 .7.3 1.3.6 2 .8s1.4.5 2.1.6c.7.2 1.4.3 2.1.5.7.1 1.4.2 2.2.3.7.1 1.4.1 2.2.1.7 0 1.5 0 2.2-.1s1.4-.2 2.2-.3c.7-.1 1.4-.3 2.1-.5s1.4-.4 2.1-.7c.7-.2 1.4-.5 2-.8.7-.3 1.3-.6 1.9-1s1.2-.7 1.8-1.2c.6-.4 1.2-.9 1.7-1.3.6-.5 1.1-1 1.6-1.5s1-1 1.5-1.6c.5-.5.9-1.1 1.3-1.7l1.2-1.8c.4-.6.7-1.3 1-1.9.3-.7.6-1.3.8-2 .2-.7.5-1.4.6-2.1.2-.7.3-1.4.5-2.1.1-.7.2-1.4.3-2.2.1-.7.1-1.4.1-2.2-.3-.5-.3-1.2-.4-1.9z"/><path id="a_x36_" class="ast7" d="M92.9 76.7c1.5-.3 3.1-.5 4.7-.6.9-.1 1.8-.1 2.8-.2 1.1 0 1.9-.9 1.9-2V69.6c0-1.2-.9-2-2.1-2-1.1 0-2.2.1-3.3.2-1.8.2-3.6.4-5.4.7-1.8.3-3.6.7-5.3 1.2-1.8.5-3.5 1-5.2 1.6s-3.4 1.3-5 2.1-3.2 1.6-4.8 2.5c-1.6.9-3.1 1.9-4.6 2.9s-2.9 2.1-4.3 3.3a70.06 70.06 0 0 0-7.7 7.7c-1.2 1.4-2.3 2.8-3.3 4.3s-2 3-2.9 4.6-1.7 3.2-2.5 4.8c-.8 1.6-1.5 3.3-2.1 5s-1.2 3.4-1.6 5.2c-.5 1.7-.9 3.5-1.2 5.3s-.5 3.6-.7 5.4-.2 3.6-.2 5.4c0 1.8.1 3.6.2 5.4.2 1.8.4 3.6.7 5.4.3 1.8.7 3.6 1.2 5.3.5 1.8 1 3.5 1.6 5.2s1.3 3.4 2.1 5 1.6 3.2 2.5 4.8 1.9 3.1 2.9 4.6 2.1 2.9 3.3 4.3c1.2 1.4 2.4 2.7 3.7 4 .8.8 1.6 1.5 2.4 2.3.9.8 2.2.7 2.9-.2l1.4-1.6 1.4-1.7c.7-.8.6-2.1-.2-2.8-.7-.6-1.4-1.3-2-1.9-1.1-1.1-2.2-2.3-3.2-3.5s-2-2.4-2.9-3.7-1.7-2.6-2.5-4-1.5-2.7-2.2-4.2c-.7-1.4-1.3-2.9-1.8-4.3-.5-1.5-1-3-1.4-4.5s-.7-3-1-4.6c-.3-1.5-.5-3.1-.6-4.7-.1-1.5-.2-3.1-.2-4.7s.1-3.1.2-4.7.3-3.1.6-4.7.6-3.1 1-4.6.9-3 1.4-4.5 1.1-2.9 1.8-4.3 1.4-2.8 2.2-4.2c.8-1.4 1.6-2.7 2.5-4S60 96.2 61 95a53.089 53.089 0 0 1 6.7-6.7c1.2-1 2.4-2 3.7-2.9 1.3-.9 2.6-1.8 4-2.5 1.4-.8 2.7-1.5 4.2-2.2 1.4-.7 2.9-1.3 4.3-1.8 1.5-.5 3-1 4.5-1.4 1.4-.2 2.9-.5 4.5-.8z"/></g><g id="a_x31_11"><path id="a_x31_1" class="ast8" d="M135.5 126.9c-.1-1-.2-1.9-.4-2.9s-.4-1.9-.6-2.8c-.3-.9-.5-1.9-.9-2.8-.3-.9-.7-1.8-1.1-2.7-.4-.9-.9-1.7-1.3-2.6-.5-.8-1-1.6-1.6-2.4-.5-.8-1.1-1.6-1.8-2.3s-1.3-1.4-2-2.1-1.4-1.3-2.1-2c-.7-.6-1.5-1.2-2.3-1.8-.8-.6-1.6-1.1-2.4-1.6-.2-.1-.4-.2-.7-.4-1-.6-2.3-.1-2.8.9l-.9 1.9-.9 2c-.4 1-.1 2.1.9 2.6.1 0 .2.1.2.1.6.4 1.2.7 1.8 1.2.6.4 1.2.9 1.7 1.3.6.5 1.1 1 1.6 1.5s1 1 1.5 1.6c.5.5.9 1.1 1.3 1.7l1.2 1.8c.4.6.7 1.3 1 1.9.3.7.6 1.3.8 2 .2.7.5 1.4.6 2.1.2.7.3 1.4.5 2.1.1.7.2 1.4.3 2.2.1.7.1 1.4.1 2.2 0 .7 0 1.4-.1 2.2-.1.7-.2 1.4-.3 2.2-.1.7-.3 1.4-.5 2.1l-.6 2.1c-.3.7-.5 1.4-.8 2-.3.7-.6 1.3-1 1.9l-1.2 1.8c-.4.6-.9 1.2-1.3 1.7l-.2.2c-.7.8-.7 2 .1 2.8l1.6 1.6 1.5 1.5c.8.8 2.2.8 2.9-.1.2-.2.3-.4.5-.6.6-.7 1.2-1.5 1.8-2.3.6-.8 1.1-1.6 1.6-2.4.5-.8.9-1.7 1.3-2.6.4-.9.8-1.8 1.1-2.7s.6-1.8.9-2.8c.3-.9.5-1.9.6-2.8.2-.9.3-1.9.4-2.9.1-1 .1-1.9.1-2.9.1-.8 0-1.8-.1-2.7z"/><path id="a_x34__1_" class="ast8" d="M115.5 203.2l-.7-4.1-.8-4.1-.4-2.1c-.2-1.1-1.2-1.8-2.2-1.6-1.1.2-2.3.3-3.5.4-1.8.2-3.6.2-5.4.2s-3.6-.1-5.4-.2c-1.8-.2-3.6-.4-5.4-.7s-3.6-.7-5.3-1.2c-1.8-.5-3.5-1-5.2-1.6s-3.4-1.3-5-2.1-3.2-1.6-4.8-2.5c-1.6-.9-3.1-1.9-4.6-2.9s-2.9-2.1-4.3-3.3a70.06 70.06 0 0 1-7.7-7.7c-1.2-1.4-2.3-2.8-3.3-4.3s-2-3-2.9-4.6-1.7-3.2-2.5-4.8-1.5-3.3-2.1-5c-.4-1.1-.8-2.2-1.1-3.3-.3-1-1.4-1.6-2.4-1.3l-2.1.6-4 1.1-4 1.1-4 1.1-2 .5c-1.1.3-1.7 1.4-1.4 2.5.5 1.7 1 3.3 1.6 4.9.8 2.3 1.8 4.5 2.8 6.7s2.1 4.3 3.3 6.4c1.2 2.1 2.5 4.1 3.9 6.1s2.9 3.9 4.4 5.7 3.2 3.6 4.9 5.3 3.5 3.3 5.3 4.9c1.8 1.5 3.8 3 5.7 4.4 2 1.4 4 2.7 6.1 3.9s4.2 2.3 6.4 3.3 4.4 1.9 6.7 2.8c2.3.8 4.6 1.5 6.9 2.2 2.3.6 4.7 1.1 7.1 1.6 2.4.4 4.7.7 7.2.9a86.663 86.663 0 0 0 14.4 0c1.7-.2 3.5-.4 5.2-.6 1.1-.2 1.9-1.2 1.7-2.3l-.4-2.1-.7-4.2z"/></g><g id="ablue"><path id="a_x38_" class="ast9" d="M160.9 108.5c-.4-1-.8-2.1-1.2-3.1-.4-1.1-1.7-1.5-2.7-1l-1.9.9-3.8 1.8-3.8 1.8-3.7 1.7-3.8 1.8-3.8 1.7-2 .9c-.9.4-1.4 1.6-1 2.6.1.3.2.6.4.9l.3.9c.3 1 1.4 1.6 2.4 1.3l2.1-.6 4-1.1 4-1.1 4-1.1 4-1.1 4-1.1 2-.5c1.1-.3 1.7-1.5 1.4-2.5-.1-1-.5-2-.9-3.1z"/><path id="a_x31_7" class="ast9" d="M106.7 122.6l-.6-.3c-.2-.1-.4-.2-.7-.3-.2-.1-.5-.2-.7-.2-.2-.1-.5-.1-.7-.2-.2 0-.5-.1-.7-.1h-1.4c-.2 0-.5.1-.7.1s-.5.1-.7.2-.5.1-.7.2-.5.2-.7.3l-.6.3c-.2.1-.4.2-.6.4-.2.1-.4.3-.6.4-.2.2-.4.3-.5.5-.2.2-.3.4-.5.5-.2.2-.3.4-.4.6s-.3.4-.4.6l-.3.6c-.1.2-.2.4-.3.7-.1.2-.2.5-.2.7-.1.2-.1.5-.2.7 0 .2-.1.5-.1.7v1.4c0 .2 0 .5.1.7 0 .2.1.5.2.7s.1.5.2.7.2.5.3.7l.3.6c.1.2.3.4.4.6.1.2.3.4.4.6.2.2.3.4.5.5.2.2.4.3.5.5.2.2.4.3.6.4.2.1.4.3.6.4l.6.3c.2.1.4.2.7.3.2.1.5.2.7.2.2.1.5.1.7.2.2 0 .5.1.7.1h1.4c.2 0 .5 0 .7-.1.2 0 .5-.1.7-.2.2-.1.5-.1.7-.2.2-.1.5-.2.7-.3l.6-.3c.2-.1.4-.3.6-.4.2-.1.4-.3.6-.4l-4.4-5.3c-.5-.6-.6-1.6-.2-2.3l3.4-5.8z"/><path id="a_x33_" class="ast9" d="M70.1 60.3c-.5-1-1.7-1.5-2.7-1-1.4.7-2.9 1.5-4.3 2.3-2 1.2-3.9 2.4-5.8 3.7-1.9 1.3-3.7 2.7-5.4 4.2-1.8 1.5-3.4 3-5.1 4.6-1.6 1.6-3.2 3.3-4.6 5.1-1.5 1.8-2.9 3.6-4.2 5.4-1.3 1.9-2.5 3.8-3.7 5.8-1.1 2-2.2 4-3.2 6.1s-1.8 4.2-2.6 6.3c-.8 2.1-1.5 4.3-2.1 6.5s-1.1 4.4-1.5 6.7c-.4 2.2-.7 4.5-.9 6.8a79.613 79.613 0 0 0 0 13.8c.2 2.3.5 4.6.9 6.8.3 1.6.6 3.2 1 4.7.3 1.1 1.4 1.7 2.5 1.5l2-.5 2.1-.6c1.1-.3 1.7-1.4 1.4-2.4-.3-1.3-.6-2.7-.8-4.1-.4-2-.6-4-.8-6.1a62.28 62.28 0 0 1 0-12.2c.2-2.1.4-4.1.8-6.1s.8-4 1.3-6 1.1-3.9 1.8-5.9c.7-1.9 1.5-3.8 2.4-5.7.9-1.9 1.8-3.7 2.8-5.5s2.1-3.5 3.3-5.2 2.4-3.3 3.7-4.9 2.7-3.1 4.1-4.5c1.4-1.4 3-2.8 4.5-4.1 1.6-1.3 3.2-2.6 4.9-3.7 1.7-1.2 3.4-2.3 5.2-3.3 1.2-.7 2.4-1.4 3.7-2 1-.5 1.4-1.7 1-2.7l-.9-2-.8-1.8z"/></g></g><g class="ast10"><path class="ast11" d="M245.6 140.8c1.6 0 3 1.4 3 3.1V179c0 1.4-1.1 2.6-2.5 2.6s-2.6-1.1-2.6-2.6v-28.4c0-.1-.1-.2-.2-.1l-5.8 11.4c-1.1 2.2-3.6 4.1-6 3.3-1.6-.5-2.9-1.7-3.7-3.3l-5.5-10.5c-.1-.1-.2-.1-.2.1v27.6c0 1.4-1.1 2.5-2.5 2.5-1.3 0-2.4-1.1-2.4-2.5v-35.6c0-1.4 1.2-2.6 2.6-2.6 1.6 0 3.1.9 3.9 2.3l8.7 16.6c.1.2.5.2.6 0l8.2-16.1c.8-1.8 2.6-2.9 4.4-2.9zM275.8 176.1c0 3-2.3 5.4-5.2 5.5h-11c-2.3 0-4.2-1.9-4.2-4.2v-11.2c0-2.2 1.9-4.1 4.2-4.1H270c.4 0 .8-.4.8-.8v-4c0-.5-.4-.8-.8-.8h-11.6c-1.3 0-2.3-1-2.3-2.3 0-1.2 1.1-2.3 2.3-2.3h13.4c2.2 0 4.1 1.8 4.1 4.1v20.1zm-15.5-8.5v8.6c0 .5.3.8.8.8h8.8c.4 0 .8-.4.8-.8v-8.6c0-.5-.4-.8-.8-.8h-8.8c-.5 0-.8.3-.8.8zM282.7 190c0-1.3 1.1-2.3 2.3-2.3h12.1c.5 0 .8-.4.8-.8v-5.7c0-.4-.3-.8-.8-.8h-10.4c-2.3 0-4.1-1.8-4.1-4.1v-22.1c0-1.3 1.1-2.4 2.4-2.4 1.4 0 2.5 1.1 2.5 2.4v20.9c0 .4.4.8.8.8h8.8c.5 0 .8-.4.8-.8v-20.8c0-1.3 1.2-2.5 2.6-2.5 1.4 0 2.5 1.1 2.5 2.5v32.6c0 2.9-2.5 5.4-5.5 5.4H285c-1.3.1-2.3-1-2.3-2.3zM342.4 140.8c1.3 0 2.3 1.1 2.3 2.4s-1.1 2.4-2.3 2.4h-12.3c-.5 0-.8.4-.8.8v8.7c0 .4.4.8.8.8h10.5c1.3 0 2.3 1.1 2.3 2.4 0 1.3-1 2.4-2.3 2.4h-10.5c-.5 0-.8.4-.8.8V179c0 1.4-1.1 2.6-2.6 2.6-1.4 0-2.6-1.1-2.6-2.6v-34c0-2.3 1.9-4.2 4.2-4.2h14.1zM355.2 181.6c-3 0-5.4-2.5-5.4-5.5v-20.2c0-2.3 1.8-4.1 4.1-4.1h11.9c2.2 0 4 1.8 4 4.1v6.7c0 2.3-1.8 4.2-4 4.2h-10.1c-.4 0-.8.4-.8.8v8.5c0 .5.4.8.8.8h12.2c1.2 0 2.2 1 2.2 2.2 0 1.3-1 2.3-2.2 2.3h-12.7zm-.4-24.3v4.1c0 .5.4.8.8.8h8.4c.4 0 .8-.4.8-.8v-4.1c0-.5-.4-.8-.8-.8h-8.4c-.4-.1-.8.3-.8.8zM377.9 181.6c-1.3 0-2.3-1-2.3-2.3 0-1.3 1-2.3 2.3-2.3h12.6c.5 0 .8-.4.8-.8v-8c0-.4-.4-.7-.8-.7H380c-2.3 0-4.1-1.9-4.1-4.2V156c0-2.3 1.8-4.1 4.1-4.1h14.2c1.3 0 2.3 1.1 2.3 2.3 0 1.3-1 2.3-2.3 2.3h-12.5c-.5 0-.8.4-.8.8v4c0 .5.3.8.8.8h10.5c2.3 0 4.2 1.8 4.2 4.1v9.9c0 3-2.5 5.5-5.5 5.5h-13zM404.3 156.9c0-.2-.2-.5-.5-.5h-.4c-1.3 0-2.3-1-2.3-2.3 0-1.2 1-2.3 2.3-2.3h.4c.3 0 .5-.2.5-.5v-7.2c0-1.4 1.1-2.5 2.5-2.5s2.5 1.1 2.5 2.5v6.8c0 .5.4.8.8.8h3.1c1.2 0 2.3 1.1 2.3 2.3 0 1.3-1.1 2.3-2.3 2.3h-3.1c-.5 0-.8.4-.8.8v19c0 .5.4.8.8.8h4.1c1.1 0 2.2 1 2.2 2.2 0 1.3-1 2.3-2.2 2.3h-4.5c-3 0-5.4-2.5-5.4-5.5v-19zM424.7 146.9c0 1.3-1 2.4-2.3 2.4h-.4c-1.3 0-2.3-1.1-2.3-2.4 0-1.3 1-2.3 2.3-2.3h.4c1.3-.1 2.3 1 2.3 2.3zm0 7.4V179c0 1.4-1.1 2.5-2.5 2.5s-2.5-1.1-2.5-2.5v-24.7c0-1.3 1.1-2.5 2.5-2.5s2.5 1.2 2.5 2.5zM450.6 154.3l-8.4 25.4c-.4 1.1-1.5 1.9-2.8 1.9-1.2 0-2.3-.8-2.7-1.9l-8.3-25.5c-.4-1.1.5-2.3 1.7-2.3 1.3 0 2.6.9 3 2.2l6.1 18.5c.1.2.3.2.4 0l6.1-18.4c.5-1.3 1.8-2.3 3.2-2.3 1.2-.1 2.1 1.2 1.7 2.4zM474.7 176.1c0 3-2.3 5.4-5.2 5.5h-11c-2.3 0-4.2-1.9-4.2-4.2v-11.2c0-2.2 1.9-4.1 4.2-4.1h10.4c.4 0 .8-.4.8-.8v-4c0-.5-.4-.8-.8-.8h-11.6c-1.3 0-2.3-1-2.3-2.3 0-1.2 1.1-2.3 2.3-2.3h13.4c2.2 0 4.1 1.8 4.1 4.1v20.1zm-15.5-8.5v8.6c0 .5.3.8.8.8h8.8c.4 0 .8-.4.8-.8v-8.6c0-.5-.4-.8-.8-.8H460c-.5 0-.8.3-.8.8zM483.9 181.6c-1.4 0-2.5-1.1-2.5-2.5v-34.9c0-1.4 1.1-2.5 2.5-2.5s2.5 1.1 2.5 2.5v34.9c0 1.3-1.1 2.5-2.5 2.5z"/></g><g class="ast10"><path class="ast11" d="M219.2 116.8c0-.1-.1-.3-.3-.3h-.2c-.7 0-1.2-.6-1.2-1.2s.5-1.2 1.2-1.2h.2c.2 0 .3-.1.3-.3v-3.9c0-.7.6-1.4 1.3-1.4.7 0 1.4.6 1.4 1.4v3.7c0 .3.2.5.5.5h1.7c.6 0 1.2.6 1.2 1.2 0 .7-.6 1.2-1.2 1.2h-1.7c-.3 0-.5.2-.5.5v10.2c0 .3.2.5.5.5h2.2c.6 0 1.2.6 1.2 1.2 0 .7-.6 1.2-1.2 1.2h-2.4c-1.6 0-2.9-1.3-2.9-3v-10.3zM238.5 128.7c0 .7-.6 1.3-1.3 1.3-.7 0-1.3-.6-1.3-1.3v-11.8c0-.3-.2-.5-.4-.5h-4.8c-.2 0-.4.2-.4.5v11.7c0 .7-.6 1.4-1.4 1.4-.7 0-1.4-.6-1.4-1.4v-18.8c0-.7.6-1.3 1.4-1.3.7 0 1.4.6 1.4 1.4v3.7c0 .3.2.5.4.5h4.9c1.6 0 2.9 1.3 2.9 2.9v11.7zM245.1 130.1c-1.6 0-2.9-1.3-2.9-3v-10.9c0-1.2 1-2.2 2.2-2.2h6.4c1.2 0 2.2 1 2.2 2.2v3.6c0 1.2-1 2.2-2.2 2.2h-5.5c-.2 0-.5.2-.5.5v4.6c0 .3.2.5.5.5h6.6c.6 0 1.2.6 1.2 1.2 0 .7-.5 1.2-1.2 1.2h-6.8zm-.2-13.2v2.2c0 .3.2.5.5.5h4.5c.2 0 .5-.2.5-.5v-2.2c0-.3-.2-.5-.5-.5h-4.5c-.3.1-.5.3-.5.5zM266 108.1h9.1c1.2 0 2.2 1 2.2 2.2v16.8c0 1.6-1.3 2.9-2.9 3H265c-.7 0-1.2-.6-1.2-1.3s.5-1.2 1.2-1.2h9.1c.3 0 .4-.2.4-.5v-7.6c0-.2-.2-.4-.4-.4H266c-1.2 0-2.2-1-2.2-2.2v-6.5c0-1.3 1-2.3 2.2-2.3zm8.6 8V111c0-.2-.2-.4-.4-.4H267c-.2 0-.4.2-.4.4v5.1c0 .2.2.4.4.4h7.2c.2 0 .4-.2.4-.4zM279.2 109.4c0-.6.6-1.2 1.3-1.2h4c1.2 0 2.2 1 2.2 2.2v18.3c0 .7-.6 1.4-1.3 1.4-.7 0-1.4-.6-1.4-1.4V111c0-.3-.2-.4-.5-.4h-3.1c-.6 0-1.2-.6-1.2-1.2zM291.6 130.1c-.7 0-1.2-.6-1.2-1.3 0-.7.6-1.2 1.2-1.2h6.8c.3 0 .5-.2.5-.5v-4.3c0-.2-.2-.4-.5-.4h-5.7c-1.2 0-2.2-1-2.2-2.2v-3.9c0-1.2 1-2.2 2.2-2.2h7.7c.7 0 1.2.6 1.2 1.2 0 .7-.6 1.2-1.2 1.2h-6.7c-.3 0-.4.2-.4.5v2.2c0 .3.2.5.4.5h5.7c1.2 0 2.2 1 2.2 2.2v5.3c0 1.6-1.3 3-3 3h-7zM305.8 116.8c0-.1-.1-.3-.3-.3h-.2c-.7 0-1.2-.6-1.2-1.2s.5-1.2 1.2-1.2h.2c.2 0 .3-.1.3-.3v-3.9c0-.7.6-1.4 1.3-1.4.7 0 1.4.6 1.4 1.4v3.7c0 .3.2.5.5.5h1.7c.6 0 1.2.6 1.2 1.2 0 .7-.6 1.2-1.2 1.2H309c-.3 0-.5.2-.5.5v10.2c0 .3.2.5.5.5h2.2c.6 0 1.2.6 1.2 1.2 0 .7-.6 1.2-1.2 1.2h-2.4c-1.6 0-2.9-1.3-2.9-3v-10.3z"/></g></symbol><symbol id="svg_motion" viewBox="0 0 87.9 157.6" xmlns="http://www.w3.org/2000/svg"><style>.bst0{fill:none;stroke:#33a44d;stroke-width:.71;stroke-miterlimit:10}.bst1{fill:#2f9c49}</style><g id="bmotion"><path id="bmotion5" class="bst0" d="M61 41.1c2.8 9.5-2.7 19.5-12.3 22.3-1.4.4-2.9.7-4.4.7H43c-10-.4-17.7-8.8-17.3-18.8S34.5 27.6 44.5 28c7.7.4 14.4 5.6 16.5 13.1z"/><path id="bmotion4" class="bst0" d="M26.3 41.1c9.7.4 17.4 8.4 17.4 18.1 0 1.7-.2 3.3-.7 4.9-.1.2-.1.4-.2.7s-.2.4-.2.7c-3.4 9.4-13.8 14.2-23.2 10.7C10 72.7 5.2 62.3 8.7 53c2.7-7.4 9.8-12.1 17.6-11.9z"/><path id="bmotion3" class="bst0" d="M15.6 74.2C19 64.9 29.3 60 38.7 63.4c1.4.5 2.7 1.2 3.9 2l.6.4c.2.1.4.3.6.4 1.4 1.1 2.5 2.3 3.5 3.7 5.8 8.1 3.9 19.4-4.2 25.2-8.1 5.8-19.4 3.9-25.2-4.2-3.6-4.8-4.4-11.1-2.3-16.7z"/><path id="bmotion2" class="bst0" d="M43.7 94.6c-1.3-1-2.5-2.2-3.4-3.6-4.5-6.2-4.6-14.7-.2-21 1-1.5 2.2-2.7 3.6-3.8.2-.2.4-.3.6-.4l.6-.4c8.3-5.5 19.5-3.3 25.1 5s3.3 19.5-5 25.1c-6.6 4.3-15.2 4-21.3-.9z"/><path id="bmotion1" class="bst0" d="M71.8 74.2c-8.3 5.6-19.5 3.3-25-4.9-.8-1.2-1.5-2.5-2-3.8-.1-.2-.2-.4-.2-.7s-.1-.4-.2-.7C41.7 54.8 46.9 45 56.2 42c9.5-3.1 19.7 2 22.8 11.4 2.6 7.8-.4 16.3-7.2 20.8z"/></g><g id="bstring"><path class="bst1" d="M11.1 12.2c-.8 0-1.4-.7-1.4-1.5V5.8c-.1-.8.5-1.4 1.3-1.5h3.3c.2 0 .4-.2.4-.4v-.5c0-.2-.2-.4-.4-.4H8.6c-.4 0-.7-.4-.7-.8s.3-.8.7-.8h5.8c.2 0 .3-.1.3-.3V.8c0-.4.3-.8.7-.8.4 0 .7.4.7.8v.3c0 .2.1.3.3.3h5.9c.4 0 .7.4.7.8s-.3.8-.7.8h-5.8c-.2 0-.4.2-.4.4v.5c0 .2.1.4.4.4h3.4c.8 0 1.4.7 1.4 1.5v4.8c0 .8-.6 1.5-1.4 1.6h-2.1c-.1 0-.1.1-.1.2v.1l4.2 4c.2.2.2.5 0 .7-.1.1-.2.1-.3.1-.7 0-1.4-.3-2-.8l-3.3-3.2c-.1-.1-.2-.1-.2 0V17c0 .4-.3.8-.7.8-.4 0-.7-.4-.7-.8v-3.5c0-.1-.1-.2-.2-.2h-.1l-3 3c-.5.5-1.2.8-1.9.8-.3 0-.5-.5-.3-.8l4-3.9c.1-.1.1-.2 0-.2l-.1-.1-2 .1zm3.6-6c0-.2-.2-.4-.4-.4h-2.9c-.2 0-.4.2-.4.4V7c0 .2.1.4.4.4h2.9c.2 0 .4-.2.4-.4v-.8zm-3.2 2.9c-.2 0-.4.2-.4.4v.7c0 .2.1.4.4.4h2.9c.2 0 .4-.2.4-.4v-.7c0-.2-.2-.4-.4-.4h-2.9zm8.3-2.8c0-.2-.2-.4-.4-.4h-2.9c-.2 0-.4.2-.4.4V7c0 .2.1.4.4.4h2.9c.2 0 .4-.2.4-.4v-.7zm-3.7 4c0 .2.1.4.4.4h2.9c.2 0 .4-.2.4-.4v-.8c0-.2-.2-.4-.4-.4h-2.9c-.2 0-.4.2-.4.4v.8zM37.9 1.2c0 .2.1.3.3.3h5.5c.5 0 .8.4.8.9s-.3.9-.8.9H30.5c-.5 0-.8-.4-.8-.9s.3-.9.8-.9h5.4c.2 0 .3-.1.3-.3V1c-.1-.5.3-.9.8-1 .5 0 .8.4.8.9l.1.3zm-6.6 15.7c-.3 0-.6-.3-.5-.6 0-.1 0-.2.1-.3l.9-1.4c.3-.6.9-.9 1.6-.9.3 0 .6.3.5.6 0 .1 0 .2-.1.3l-.9 1.3c-.3.6-.9 1-1.6 1zM42.2 10c0 .8-.6 1.5-1.4 1.5h-2.5c-.2 0-.4.2-.4.4v5.4c.1.4-.2.9-.7.9-.4.1-.9-.2-.9-.7V12c0-.2-.1-.4-.4-.4h-2.5c-.8 0-1.4-.7-1.4-1.5V6.5c-.1-.8.5-1.5 1.3-1.5h7.4c.8 0 1.4.7 1.4 1.5l.1 3.5zm-8.3-3.2c-.2 0-.4.2-.4.4v2.2c0 .2.2.4.4.4h6.4c.2 0 .4-.2.4-.4V7.2c0-.2-.1-.4-.3-.4h-6.5zm6.5 7.8c-.2-.3-.1-.7.2-.8.1 0 .2-.1.2-.1.6 0 1.2.4 1.6.9l.9 1.4c.2.3.1.6-.1.8-.1.1-.2.1-.3.1-.7 0-1.3-.4-1.6-.9l-.9-1.4zM65.2 4.6c.5 0 .8.4.8.9s-.3.9-.8.9h-5c-.1 0-.2.1-.2.2v.1l5.4 10c.2.3.1.7-.2.8-.1 0-.2.1-.3.1-.6 0-1.1-.4-1.4-.9l-4.8-9c0-.1-.2-.1-.3-.1l-.1.1-4.2 9c-.2.5-.8.9-1.3.9-.3 0-.6-.3-.6-.7 0-.1 0-.2.1-.2L57 6.8c.1-.1 0-.3-.1-.3h-5.1c-.5-.1-.8-.5-.8-1s.4-.9.8-.9h5.5c.2 0 .4-.2.4-.4V1.1c0-.5.4-.8.8-.8.5 0 .8.4.8.8v3.1c0 .2.1.4.4.4h5.5zM85 2.5c-.1.1 0 .3.1.3h1.5c.8 0 1.4.7 1.4 1.5v1.2c.1.5-.2.9-.7.9s-.9-.2-.9-.7v-.5c0-.2-.1-.4-.3-.4h-12c-.2 0-.4.2-.3.4v.5c.1.5-.2.9-.7.9s-.9-.2-.9-.7V4.4c0-.8.6-1.5 1.4-1.5h8.9c.2 0 .4-.1.5-.4l.7-1.5c.3-.6.8-1 1.5-1 .4 0 .6.3.6.7 0 .1 0 .2-.1.3L85 2.5zM82.7 6c.5 0 .8.5.8.9 0 .1-.1.3-.1.4l-2.1 3.6c-.1.1 0 .2.1.3H86.8c.5.1.8.5.8 1-.1.4-.4.7-.8.8H81c-.2 0-.4.2-.4.4v3.4c0 .8-.6 1.5-1.4 1.5h-.8c-.5 0-.8-.4-.8-.9s.3-.9.8-.9h.3c.2 0 .3-.2.3-.3v-2.8c0-.2-.1-.4-.4-.4h-5.5c-.5-.1-.8-.5-.8-1 .1-.4.4-.7.8-.8h5.5c.2 0 .4-.2.4-.4v-.4c0-.7.5-1.2 1.1-1.2.2 0 .4-.1.5-.3l.4-.8c.1-.2 0-.4-.2-.4h-4.3c-.5 0-.8-.4-.8-.9 0-.4.3-.8.8-.8h6.2zm-6.3-5c.2.3 0 .8-.3.9-.1.1-.2.1-.3.1h-.1c-.6 0-1.1-.4-1.3-1-.1-.3 0-.7.4-.9H75.1c.6 0 1.1.3 1.3.9zm4.5 0c.2.4 0 .8-.4.9-.1 0-.2 0-.2.1h-.1c-.6 0-1.1-.4-1.2-1-.1-.4.1-.8.5-.9h.2c.6 0 1.1.4 1.2.9zM20.1 131.9c0 .3.2.6.5.6h3.1c.8.1 1.4.8 1.3 1.6-.1.7-.6 1.3-1.3 1.3H2c-.8-.1-1.4-.8-1.3-1.6.1-.7.6-1.3 1.3-1.3h4.4c.3 0 .6-.3.6-.6l1-8.6c0-.3-.1-.6-.4-.6H5.4c-.8 0-1.3-.7-1.3-1.5s.5-1.4 1.3-1.4H8c.4 0 .6-.3.7-.7l.7-5.5c0-.3-.2-.6-.5-.6H3.7c-.8-.1-1.4-.8-1.3-1.6.1-.7.6-1.3 1.3-1.3h18.4c.8.1 1.4.8 1.3 1.6-.1.7-.6 1.3-1.3 1.3h-9.5c-.3 0-.6.3-.6.6l-.7 5.5c0 .3.2.6.5.7h6.6c1.2.1 2.1 1.1 2 2.3l-.3 9.8zm-8.7-9.2c-.3 0-.6.3-.6.6L9.7 132c0 .3.2.6.5.6h6.7c.3 0 .6-.3.6-.6l.3-8.6c0-.3-.2-.6-.5-.6l-5.9-.1zM34.7 111.4c0-1.3 1-2.3 2.3-2.4h13c1.2.1 2.2 1.1 2.1 2.4V135c0 .7-.5 1.4-1.2 1.4s-1.3-.7-1.3-1.4v-7.5c0-.3-.2-.6-.5-.6H36.4c-.3 0-.6.3-.6.6l-.7 7.5c0 .8-.6 1.4-1.4 1.4-.7 0-1.2-.6-1.1-1.3v-.1l2.1-23.6zm1.5 11.9c0 .3.2.6.5.6H49c.3 0 .6-.3.5-.6v-3.4c0-.3-.2-.6-.5-.6H37.1c-.3 0-.6.3-.6.6l-.3 3.4zm13.4-10.9c0-.3-.2-.6-.5-.6H37.7c-.3 0-.6.3-.6.6l-.3 3.2c0 .3.2.6.5.6H49c.3 0 .6-.3.6-.6v-3.2zM67.1 108.7h4.5c.8.1 1.4.8 1.3 1.6 0 .2-.1.3-.1.4l-2.3 5.1c-.5 1.3-1.3 2.5-2.1 3.6l-4.9 6.3c-.5.7-1.4 1.1-2.2 1.1-.4 0-.8-.4-.7-.9 0-.2.1-.3.2-.4l4.6-5.9c.1-.2.1-.4-.1-.6l-2.3-1.7c-.1-.1-.1-.1-.2 0-.4.6-1 1-1.8 1-.5-.1-.8-.5-.8-1 0-.1 0-.2.1-.3l3.8-6.7c.6-1 1.8-1.6 3-1.6zm-3 25.6l.9-2c.3-.8 1.1-1.4 2-1.4.6.1 1 .6 1 1.2 0 .1 0 .2-.1.3l-.9 2c-.3.8-1.1 1.4-2 1.4-.6 0-1-.5-1-1 0-.2 0-.3.1-.5zm16.1-6.2h-5.8c-.3 0-.4.2-.4.4v7.4c0 .7-.5 1.3-1.2 1.4-.7-.1-1.3-.7-1.3-1.4v-7.4c0-.3-.2-.4-.4-.4h-5.8c-.7-.1-1.3-.7-1.2-1.5.1-.7.6-1.2 1.2-1.2h14.9c.7.1 1.3.7 1.2 1.5 0 .7-.5 1.2-1.2 1.2zm-15.9-12.6l2.3 1.8c.1.1.3.2.4.1l.1-.1.4-.5c.2-.3.4-.5.5-.8.1-.2 0-.4-.2-.6l-2.5-1.8c-.1-.1-.3-.1-.4 0 0 0 0 .1-.1.1l-.7 1.2c0 .2 0 .5.2.6zm5.7-4.6h-3.2c-.2 0-.4.1-.5.3-.1.1-.1.3 0 .3l2.5 1.8c.1.2.3.1.4-.1l.9-2c.1-.1 0-.2-.1-.3.1 0 0 0 0 0zm6.9 12.3H69c-.8-.1-1.3-.8-1.2-1.5.1-.6.6-1.1 1.2-1.2h7.9c.8.1 1.3.8 1.2 1.5-.1.7-.6 1.2-1.2 1.2zm-2.7-8.4c-.3-.4-.1-1 .3-1.2.1-.1.2-.1.4-.1.9 0 1.7.5 2.3 1.2l.9 1.3c.1.2.2.2.3 0l1.9-3.9c.1-.2 0-.3-.2-.3h-3.4c-.7-.1-1.3-.8-1.1-1.5.1-.6.6-1.1 1.1-1.1h5.7c.8.1 1.3.8 1.2 1.6 0 .1-.1.3-.1.4l-3.4 7c-.1.2-.1.5.1.8l4.8 5.9c.3.4.2.9-.1 1.2-.1.1-.3.2-.4.2-1 0-1.9-.5-2.5-1.2l-4.8-5.7-3-4.6zm4.6 16.1c.9 0 1.8.5 2.2 1.4l1.1 2c.3.5.1 1.1-.3 1.4-.1.1-.3.1-.5.1-.9 0-1.7-.5-2.2-1.3l-1.1-2c-.3-.5-.1-1.2.5-1.4.1-.2.2-.2.3-.2zM9.9 144.3c-.1.1 0 .3.1.3h1.2c.6 0 1.1.6 1.1 1.2v.6c0 .3-.3.6-.6.6s-.6-.3-.6-.6v-.2c0-.1-.1-.2-.2-.3H1.5c-.2 0-.3.1-.3.3v.4c0 .4-.3.7-.6.7-.4 0-.6-.3-.6-.7v-.9c0-.6.5-1.2 1.1-1.2h1.2c.1 0 .2-.1.2-.2v-.1l-.2-.4c-.1-.2 0-.5.2-.6.1 0 .1-.1.2-.1.5 0 .9.3 1.1.7l.2.4c.1.2.3.3.4.3h1c.2 0 .3-.2.3-.3v-.6c0-.3.2-.7.5-.7s.7.2.7.5v.8c0 .2.1.3.3.3H8c.2 0 .4-.1.5-.3l.3-.4c.3-.4.7-.7 1.2-.7.2 0 .4.3.4.5 0 .1 0 .1-.1.2l-.4.5zm-2.8 6.2c-.2 0-.3.2-.3.3v.6c0 .2.1.3.3.3h2.6c.6 0 1.1.6 1.1 1.2v2.7c0 .3-.2.6-.6.6-.3 0-.6-.3-.6-.6v-2.3c0-.2-.1-.3-.3-.3H7.2c-.2 0-.3.2-.3.3v3.4c0 .3-.2.7-.5.7s-.7-.2-.7-.5v-3.6c0-.2-.1-.3-.3-.3H3c-.2 0-.3.2-.3.3v2.3c0 .3-.2.6-.6.6-.3 0-.6-.3-.6-.6v-2.7c0-.7.5-1.2 1.1-1.2h2.6c.2 0 .3-.1.3-.3v-.6c0-.2-.1-.3-.3-.3H3.5c-.6 0-1.1-.6-1.1-1.2V148c0-.7.5-1.2 1.1-1.2H9c.6 0 1.1.6 1.1 1.2v1.3c0 .6-.5 1.2-1.1 1.2H7.1zM3.8 148c-.2 0-.3.2-.3.3v.6c0 .2.1.3.3.3h4.8c.2 0 .3-.1.3-.3v-.6c0-.2-.1-.3-.3-.3H3.8zM20.3 143.9c.1-.4.5-.7 1-.7.3 0 .5.3.5.6v.2l-.5 1.4c-.1.2-.1.4-.1.6v10.8c0 .4-.2.7-.6.7s-.7-.2-.7-.6V149.3c-.1.2-.3.3-.5.3H19c-.3 0-.5-.3-.5-.6v-.2l1.8-4.9zm11.2 6.2c0 .4-.3.7-.6.7H28c-.2 0-.3.2-.3.3v3.8c0 .2.1.3.3.3h2.4c.4 0 .7.3.7.7 0 .4-.3.7-.6.7h-6.8c-.4 0-.7-.3-.7-.7 0-.4.3-.7.7-.7h2.4c.2 0 .3-.1.3-.3v-3.8c0-.2-.1-.3-.3-.3h-2.9c-.4-.1-.7-.4-.6-.9.1-.3.3-.6.6-.6h2.9c.2 0 .3-.1.3-.3v-2.8c0-.2-.1-.3-.3-.3l-1.9.3c-.3 0-.6-.2-.7-.6v-.1c0-.4.3-.8.7-.8l5.5-.7c.3 0 .6.2.7.6v.1c0 .4-.3.8-.7.8l-1.7.2c-.2 0-.3.2-.3.4v3c0 .2.1.3.3.3h2.9c.4 0 .7.3.6.7.1 0 .1 0 0 0zM50 152.1c0 .3-.3.6-.6.7h-2.2c-.2 0-.3.1-.4.3l-.8 1.8c-.1.1 0 .3.1.4l2 .6c.4.1.6.5.6.9 0 .3-.2.5-.5.5H48l-3-.9c-.2-.1-.4-.1-.6 0l-5.4 1.2c-.3 0-.6-.2-.6-.5v-.1c0-.4.2-.7.6-.8l2.7-.6c.1 0 .1-.1 0-.1l-1-.3c-.6-.2-.9-.9-.7-1.5l.2-.5c.1-.1 0-.2-.1-.3h-2.5c-.3 0-.6-.3-.6-.7 0-.3.3-.6.6-.7h3c.1 0 .2-.1.2-.2.1-.4.4-.6.8-.7h.1c.3 0 .5.3.4.5v.1c0 .1 0 .1.1.2h7.1c.4.1.7.4.7.7zm-11-2.6c-.2 0-.3-.2-.3-.4 0-.1.1-.2.1-.2l2.2-1.4c.1-.1 0-.2 0-.2h-3c-.4 0-.7-.3-.7-.7 0-.4.3-.7.7-.7h4.7c.2 0 .3-.1.3-.3v-.4c0-.2-.1-.3-.3-.3l-2.8.1c-.3 0-.6-.3-.6-.6 0-.4.2-.7.6-.7l7.4-.4c.3 0 .6.3.6.6 0 .4-.2.7-.6.7l-2.8.1c-.2 0-.3.2-.3.3v.4c0 .2.1.3.3.3h4.7c.4 0 .7.3.7.7 0 .4-.3.7-.7.7h-2.8s-.1.1 0 .1l2.2 1.5c.2.1.2.3.1.5-.1.1-.1.1-.2.1h-.2c-.7 0-1.5-.2-2.1-.6l-1.7-1.1c-.1 0-.2 0-.2.1v1.5c0 .3-.3.6-.6.6s-.6-.3-.6-.6V148c0-.1-.1-.2-.2-.2h-.1l-1.5 1c-.6.4-1.3.6-2.1.6l-.2.1zm5.4 5.2c.2 0 .3 0 .4-.2l.6-1.4c0-.1 0-.2-.1-.3h-3.2c-.2 0-.4.1-.4.3l-.2.5c0 .2 0 .3.2.4l2.7.7zM66.2 147.5c.7 0 1.2.6 1.1 1.2v5.2c0 .6-.5 1.2-1.1 1.2h-7.4c-.6 0-1.1-.6-1.1-1.2v-5.2c0-.7.5-1.2 1.1-1.2h7.4zm-8 9.8c-.2 0-.4-.2-.4-.5 0-.1 0-.2.1-.2.3-.4.7-.7 1.2-.7h.3c.2 0 .4.2.4.4 0 .1 0 .2-.1.2-.3.4-.7.7-1.2.7h-.3zm7.5-14.2c.6 0 1.1.6 1.1 1.2v1.2c0 .7-.5 1.2-1.1 1.2h-6.6c-.7 0-1.2-.6-1.2-1.2v-1.2c0-.7.5-1.2 1.1-1.2h6.7zm.5 6c0-.2-.1-.3-.3-.3H59c-.2 0-.3.2-.3.3v.1c0 .2.1.3.3.3h6.9c.2 0 .3-.2.3-.3v-.1zm0 2.2c0-.2-.1-.3-.3-.3H59c-.2 0-.3.2-.3.3v.1c0 .2.1.3.3.3h6.9c.2 0 .3-.2.3-.3v-.1zm-7.5 2.3c0 .2.1.3.3.3h6.9c.2 0 .3-.2.3-.3v-.1c0-.2-.1-.3-.3-.3H59c-.2 0-.3.2-.3.3v.1zm6.7-8.2c.2 0 .3-.2.3-.3v-.4c0-.2-.1-.3-.3-.3h-5.8c-.2 0-.3.2-.3.3v.4c0 .2.1.3.3.3h5.8zm.6 10.5c.5 0 .9.3 1.2.7.1.2.1.5-.1.6-.1 0-.1.1-.2.1h-.3c-.5 0-.9-.3-1.2-.7-.1-.2-.1-.5.1-.6.1 0 .1-.1.2-.1h.3zM81.4 144.7c-.1-.1-.3-.1-.4 0l-3.6 3.5c-.5.5-1.1.7-1.8.8-.3 0-.5-.5-.2-.8l5.1-4.9c.5-.5 1.2-.5 1.7 0l4.9 4.9c.2.2.2.4 0 .6-.1.1-.1.1-.2.1-.7 0-1.3-.3-1.7-.8l-3.8-3.4zm-5.2 7.6c-.4-.1-.7-.4-.6-.9.1-.3.3-.6.6-.6h10c.4.1.7.4.6.9-.1.3-.3.6-.6.6h-5.7c-.2 0-.3.1-.4.3l-.9 2.2c0 .1 0 .2.1.3h.1l4.2-.2c.1 0 .2-.1.2-.2v-.1l-.1-.3c-.1-.3 0-.6.3-.7h.2c.5 0 .9.3 1 .8l.8 2.5c.1.3 0 .6-.3.7h-.2c-.5 0-.9-.3-1-.8l-.1-.2c0-.1-.2-.2-.3-.2l-6 .3c-.4 0-.7-.4-.7-.8 0-.1 0-.2.1-.3l1.3-3c0-.1 0-.2-.1-.3h-2.5zm2.5-3.1c-.4 0-.7-.4-.6-.8 0-.3.3-.6.6-.6h4.7c.4 0 .7.4.6.8 0 .3-.3.6-.6.6h-4.7z"/></g></symbol></svg>