<svg version="1.1" id="レイヤー_1" xmlns="http://www.w3.org/2000/svg" xmlns:xlink="http://www.w3.org/1999/xlink" x="0px"
	 y="0px" viewBox="0 0 512.2 263.6" style="enable-background:new 0 0 512.2 263.6;" xml:space="preserve">
<style type="text/css">
	.st0{fill:#008A83;stroke:#FFFFFF;stroke-width:0.9921;stroke-linecap:round;stroke-linejoin:round;stroke-miterlimit:10;}
	.st1{fill:#800073;stroke:#FFFFFF;stroke-width:0.9921;stroke-linecap:round;stroke-linejoin:round;stroke-miterlimit:10;}
	.st2{fill:#7BAA17;stroke:#FFFFFF;stroke-width:0.9921;stroke-linecap:round;stroke-linejoin:round;stroke-miterlimit:10;}
	.st3{fill:#005AA0;stroke:#FFFFFF;stroke-width:0.9921;stroke-linecap:round;stroke-linejoin:round;stroke-miterlimit:10;}
	.st4{fill:#00873C;stroke:#FFFFFF;stroke-width:0.9921;stroke-linecap:round;stroke-linejoin:round;stroke-miterlimit:10;}
	.st5{fill:#C70044;stroke:#FFFFFF;stroke-width:0.9921;stroke-linecap:round;stroke-linejoin:round;stroke-miterlimit:10;}
	.st6{fill:#D28300;stroke:#FFFFFF;stroke-width:0.9921;stroke-linecap:round;stroke-linejoin:round;stroke-miterlimit:10;}
	.st7{fill:#181878;stroke:#FFFFFF;stroke-width:0.9921;stroke-linecap:round;stroke-linejoin:round;stroke-miterlimit:10;}
	.st8{fill:#DFD000;stroke:#FFFFFF;stroke-width:0.9921;stroke-linecap:round;stroke-linejoin:round;stroke-miterlimit:10;}
	.st9{fill:#008DCB;stroke:#FFFFFF;stroke-width:0.9921;stroke-linecap:round;stroke-linejoin:round;stroke-miterlimit:10;}
	.st10{enable-background:new    ;}
	.st11{fill:#007D7A;}
</style>
<g>
	<g id="logo">
		<g id="_x30_">
			<path id="_x31_" class="st0" d="M185.1,122.6c-0.2-1.7-0.4-3.5-0.6-5.2c-0.2-1.1-1.2-1.9-2.3-1.7h-0.1c-1.1,0.2-1.8,1.2-1.6,2.3
				c0.2,1.6,0.4,3.2,0.6,4.8c0.2,2.3,0.3,4.5,0.3,6.9c0,2.3-0.1,4.6-0.3,6.9c-0.2,2.3-0.5,4.6-0.9,6.8c-0.4,2.3-0.9,4.5-1.5,6.7
				s-1.3,4.4-2.1,6.5c-0.8,2.2-1.7,4.3-2.6,6.3c-1,2.1-2,4.1-3.2,6.1c-1.1,2-2.4,3.9-3.7,5.8c-1.3,1.9-2.7,3.7-4.2,5.4
				c-1.5,1.8-3,3.4-4.6,5.1c-1.6,1.6-3.3,3.2-5.1,4.6c-1.8,1.5-3.6,2.9-5.4,4.2c-1.9,1.3-3.8,2.5-5.8,3.7c-1.4,0.8-2.8,1.6-4.3,2.3
				c-1,0.5-1.4,1.7-1,2.7v0.1c0.5,1,1.7,1.5,2.7,1c1.6-0.8,3.1-1.6,4.6-2.5c2.1-1.2,4.1-2.5,6.1-3.9s3.9-2.9,5.7-4.4
				s3.6-3.2,5.3-4.9s3.3-3.5,4.9-5.3c1.5-1.8,3-3.8,4.4-5.7c1.4-2,2.7-4,3.9-6.1s2.3-4.2,3.3-6.4s1.9-4.4,2.8-6.7
				c0.8-2.3,1.5-4.6,2.2-6.9c0.6-2.3,1.1-4.7,1.6-7.1c0.4-2.4,0.7-4.7,0.9-7.2c0.2-2.4,0.3-4.8,0.3-7.2
				C185.4,127.3,185.3,124.9,185.1,122.6z"/>
			<path id="_x37_" class="st0" d="M140.6,161.7c0.9-1.1,1.8-2.3,2.6-3.4c0.8-1.2,1.6-2.4,2.3-3.7s1.4-2.5,2-3.8s1.2-2.6,1.7-4
				s0.9-2.7,1.3-4.1c0.4-1.4,0.7-2.8,0.9-4.2s0.4-2.8,0.6-4.3c0.1-1.4,0.2-2.9,0.2-4.3c0-1.5-0.1-2.9-0.2-4.3
				c-0.1-1.5-0.3-2.9-0.6-4.3c-0.1-0.8-0.3-1.5-0.4-2.3c-0.2-1.1-1.4-1.7-2.5-1.5l-2,0.5l-4,1.1l-4,1.1l-2.1,0.6
				c-1,0.3-1.7,1.3-1.5,2.3c0.1,0.3,0.1,0.7,0.2,1c0.2,0.9,0.3,1.9,0.4,2.9c0.1,1,0.1,1.9,0.1,2.9s0,1.9-0.1,2.9s-0.2,1.9-0.4,2.9
				s-0.4,1.9-0.6,2.8c-0.3,0.9-0.5,1.9-0.9,2.8c-0.3,0.9-0.7,1.8-1.1,2.7c-0.4,0.9-0.9,1.7-1.3,2.6c-0.5,0.8-1,1.6-1.6,2.4
				c-0.5,0.8-1.1,1.6-1.8,2.3c-0.6,0.7-1.3,1.4-2,2.1c-0.7,0.7-1.4,1.3-2.1,2c-0.7,0.6-1.5,1.2-2.3,1.8c-0.3,0.2-0.6,0.4-0.8,0.6
				c-0.9,0.6-1.1,1.8-0.6,2.7l1.1,1.9l2.1,3.6l2.1,3.6l1,1.8c0.6,1,1.8,1.3,2.8,0.7c0.6-0.4,1.3-0.8,1.9-1.3
				c1.2-0.8,2.3-1.7,3.4-2.6c1.1-0.9,2.2-1.9,3.2-2.9S139.7,162.8,140.6,161.7z"/>
		</g>
		<path id="_x35_" class="st1" d="M160.3,134.8l-4.1-0.4l-2.1-0.2c-1.1-0.1-2.1,0.7-2.2,1.8c-0.1,0.8-0.2,1.6-0.3,2.3
			c-0.3,1.4-0.6,2.8-0.9,4.2c-0.4,1.4-0.8,2.8-1.3,4.1c-0.5,1.4-1.1,2.7-1.7,4c-0.6,1.3-1.3,2.6-2,3.8c-0.7,1.3-1.5,2.5-2.3,3.7
			s-1.7,2.3-2.6,3.4c-0.9,1.1-1.9,2.2-2.9,3.2s-2.1,2-3.2,2.9c-1.1,0.9-2.3,1.8-3.4,2.6c-1.2,0.8-2.4,1.6-3.7,2.3s-2.5,1.4-3.8,2
			s-2.6,1.2-4,1.7s-2.7,0.9-4.1,1.3c-1.4,0.4-2.8,0.7-4.2,0.9c-1.4,0.2-2.8,0.4-4.3,0.6c-1.4,0.1-2.9,0.2-4.3,0.2s-2.9-0.1-4.3-0.2
			c-1.5-0.1-2.9-0.3-4.3-0.6c-0.8-0.1-1.5-0.3-2.3-0.5c-1.1-0.2-2.2,0.4-2.4,1.4l-0.6,2.1l-1.1,4l-0.5,2c-0.3,1.1,0.4,2.2,1.5,2.5
			c1.1,0.2,2.2,0.5,3.3,0.7c1.8,0.3,3.6,0.5,5.4,0.7s3.6,0.2,5.4,0.2s3.6-0.1,5.4-0.2c1.8-0.2,3.6-0.4,5.4-0.7s3.6-0.7,5.3-1.2
			c1.8-0.5,3.5-1,5.2-1.6s3.4-1.3,5-2.1c1.6-0.8,3.2-1.6,4.8-2.5s3.1-1.9,4.6-2.9s2.9-2.1,4.3-3.3c1.4-1.2,2.7-2.4,4-3.7
			s2.5-2.6,3.7-4s2.3-2.8,3.3-4.3s2-3,2.9-4.6s1.7-3.2,2.5-4.8s1.5-3.3,2.1-5s1.2-3.4,1.6-5.2c0.5-1.7,0.9-3.5,1.2-5.3
			c0.2-1.1,0.4-2.2,0.5-3.3s-0.7-2.2-1.8-2.3L160.3,134.8z"/>
		<path id="_x32_" class="st2" d="M180.9,122.8c-0.2-2.3-0.5-4.6-0.9-6.8c-0.4-2.3-0.9-4.5-1.5-6.7s-1.3-4.4-2.1-6.5
			c-0.8-2.2-1.7-4.3-2.6-6.3c-1-2.1-2-4.1-3.2-6.1c-1.1-2-2.4-3.9-3.7-5.8s-2.7-3.7-4.2-5.4c-1.5-1.8-3-3.4-4.6-5.1
			c-1.6-1.6-3.3-3.2-5.1-4.6c-1.8-1.5-3.6-2.9-5.4-4.2c-1.9-1.3-3.8-2.5-5.8-3.7c-2-1.1-4-2.2-6.1-3.2s-4.2-1.8-6.3-2.6
			c-2.1-0.8-4.3-1.5-6.6-2.1c-2.2-0.6-4.4-1.1-6.7-1.5c-2.2-0.4-4.5-0.7-6.8-0.9s-4.6-0.3-6.9-0.3s-4.6,0.1-6.9,0.3
			s-4.6,0.5-6.8,0.9c-2.3,0.4-4.5,0.9-6.7,1.5c-1.6,0.4-3.1,0.9-4.6,1.4c-1.1,0.4-1.6,1.5-1.2,2.6l0.7,2l1.4,3.9l1.4,3.9l0.7,2
			c0.4,1,1.5,1.6,2.5,1.2c1.1-0.4,2.2-0.7,3.4-1c1.7-0.5,3.5-0.9,5.3-1.2c1.8-0.3,3.6-0.5,5.4-0.7s3.6-0.2,5.4-0.2s3.6,0.1,5.4,0.2
			c1.8,0.2,3.6,0.4,5.4,0.7c1.8,0.3,3.6,0.7,5.3,1.2c1.8,0.5,3.5,1,5.2,1.6s3.4,1.3,5,2.1c1.6,0.8,3.2,1.6,4.8,2.5s3.1,1.9,4.6,2.9
			s2.9,2.1,4.3,3.3c1.4,1.2,2.7,2.4,4,3.7c1.3,1.3,2.5,2.6,3.7,4s2.3,2.8,3.3,4.3s2,3,2.9,4.6s1.7,3.2,2.5,4.8
			c0.8,1.6,1.5,3.3,2.1,5s1.2,3.4,1.6,5.2c0.5,1.7,0.9,3.5,1.2,5.3s0.5,3.6,0.7,5.4c0.1,1.2,0.2,2.3,0.2,3.5c0,1.1,0.9,1.9,2,1.9
			h2.2h4.1h4.1h2.1c1.1,0,2-0.9,2-2C181.2,126,181.1,124.4,180.9,122.8z"/>
		<path id="_x31_5" class="st2" d="M118.8,126.9c-0.1-0.5-0.2-1-0.3-1.4c-0.1-0.5-0.3-0.9-0.4-1.4c-0.2-0.5-0.4-0.9-0.6-1.3
			s-0.4-0.9-0.7-1.3c-0.2-0.4-0.5-0.8-0.8-1.2c-0.3-0.4-0.6-0.8-0.9-1.1c-0.3-0.4-0.6-0.7-1-1.1c-0.3-0.3-0.7-0.7-1.1-1
			s-0.8-0.6-1.2-0.9c-0.4-0.3-0.8-0.5-1.2-0.8c-0.4-0.2-0.8-0.5-1.3-0.7c-0.4-0.2-0.9-0.4-1.3-0.6c-0.5-0.2-0.9-0.3-1.4-0.4
			s-0.9-0.2-1.4-0.3c-0.5-0.1-0.9-0.2-1.4-0.2s-1-0.1-1.4-0.1c-0.5,0-1,0-1.4,0.1c-0.5,0-1,0.1-1.4,0.2c-0.5,0.1-0.9,0.2-1.4,0.3
			c-0.5,0.1-0.9,0.3-1.4,0.4c-0.5,0.2-0.9,0.4-1.3,0.6s-0.9,0.4-1.3,0.7c-0.4,0.2-0.8,0.5-1.2,0.8c-0.4,0.3-0.8,0.6-1.2,0.9
			c-0.4,0.3-0.7,0.6-1.1,1c-0.3,0.3-0.7,0.7-1,1.1s-0.6,0.7-0.9,1.1s-0.5,0.8-0.8,1.2c0,0.1-0.1,0.1-0.1,0.2
			c-0.3,0.6-0.1,1.3,0.5,1.6l1.7,0.8c0.5,0.3,1.2,0,1.5-0.5l0,0c0.2-0.3,0.4-0.6,0.6-0.9s0.4-0.6,0.7-0.9c0.2-0.3,0.5-0.5,0.7-0.8
			c0.3-0.3,0.5-0.5,0.8-0.7s0.6-0.5,0.9-0.7s0.6-0.4,0.9-0.6s0.6-0.4,1-0.5c0.3-0.2,0.7-0.3,1-0.4s0.7-0.2,1-0.3
			c0.3-0.1,0.7-0.2,1.1-0.2c0.4-0.1,0.7-0.1,1.1-0.1s0.7-0.1,1.1-0.1s0.7,0,1.1,0.1c0.4,0,0.7,0.1,1.1,0.1c0.4,0.1,0.7,0.1,1.1,0.2
			s0.7,0.2,1,0.3c0.3,0.1,0.7,0.3,1,0.4c0.3,0.2,0.6,0.3,1,0.5c0.3,0.2,0.6,0.4,0.9,0.6s0.6,0.4,0.9,0.7c0.3,0.2,0.5,0.5,0.8,0.7
			c0.3,0.3,0.5,0.5,0.7,0.8s0.5,0.6,0.7,0.9s0.4,0.6,0.6,0.9s0.4,0.6,0.5,1c0.2,0.3,0.3,0.7,0.4,1s0.2,0.7,0.3,1
			c0.1,0.3,0.2,0.7,0.2,1.1c0.1,0.4,0.1,0.7,0.1,1.1s0.1,0.7,0.1,1.1c0,0.4,0,0.7-0.1,1.1c0,0.4-0.1,0.7-0.1,1.1
			c-0.1,0.4-0.1,0.7-0.2,1.1c-0.1,0.4-0.2,0.7-0.3,1c-0.1,0.3-0.3,0.7-0.4,1s-0.3,0.7-0.5,1s-0.4,0.6-0.6,0.9
			c-0.2,0.3-0.4,0.6-0.7,0.9l0,0c-0.4,0.5-0.4,1.1,0.1,1.6l1.3,1.3c0.5,0.5,1.3,0.5,1.7-0.1c0-0.1,0.1-0.1,0.1-0.2
			c0.3-0.4,0.6-0.7,0.9-1.1c0.3-0.4,0.5-0.8,0.8-1.2c0.2-0.4,0.5-0.8,0.7-1.3c0.2-0.4,0.4-0.9,0.6-1.3c0.2-0.5,0.3-0.9,0.4-1.4
			s0.2-0.9,0.3-1.4c0.1-0.5,0.2-0.9,0.2-1.4s0.1-1,0.1-1.4c0-0.5,0-1-0.1-1.4C119,127.8,118.9,127.4,118.8,126.9z"/>
		<path id="_x31_3" class="st3" d="M111.1,161.8l-1.1-4l-0.6-2.1c-0.3-1-1.3-1.6-2.3-1.5c-0.1,0-0.2,0-0.3,0
			c-0.7,0.1-1.4,0.2-2.2,0.3c-0.7,0.1-1.4,0.1-2.2,0.1c-0.7,0-1.4,0-2.2-0.1c-0.7-0.1-1.4-0.2-2.2-0.3c-0.7-0.1-1.4-0.3-2.1-0.5
			s-1.4-0.4-2.1-0.6c-0.7-0.3-1.4-0.5-2-0.8c-0.7-0.3-1.3-0.6-1.9-1s-1.2-0.7-1.8-1.2c-0.6-0.4-1.2-0.9-1.7-1.3
			c-0.6-0.5-1.1-1-1.6-1.5s-1-1-1.5-1.6c-0.1-0.1-0.1-0.1-0.2-0.2c-0.7-0.8-1.9-1-2.7-0.4l-1.8,1.3l-3.4,2.4l-1.7,1.2
			c-1,0.7-1.2,2-0.4,2.9c0.2,0.3,0.5,0.6,0.7,0.9c0.7,0.8,1.4,1.6,2.2,2.4c0.8,0.8,1.6,1.5,2.4,2.2s1.7,1.4,2.6,2s1.8,1.2,2.7,1.8
			c0.9,0.5,1.9,1,2.9,1.5s2,0.9,3,1.2c1,0.4,2.1,0.7,3.1,1s2.1,0.5,3.2,0.7s2.1,0.3,3.2,0.4c1.1,0.1,2.2,0.1,3.2,0.1
			c1.1,0,2.2,0,3.2-0.1c1.1-0.1,2.2-0.2,3.2-0.4c0.4-0.1,0.7-0.1,1.1-0.2c1.2-0.2,1.9-1.4,1.5-2.5L111.1,161.8z"/>
		<path id="_x31_2" class="st4" d="M96.1,105.8l-1.1-4l-1.1-4l-1.1-4l-0.5-2c-0.3-1.1-1.5-1.7-2.6-1.4c-0.5,0.2-0.9,0.3-1.4,0.5
			c-1.1,0.4-2.3,0.9-3.3,1.4c-1.1,0.5-2.2,1.1-3.2,1.7s-2.1,1.3-3,1.9c-1,0.7-1.9,1.4-2.9,2.2c-0.9,0.8-1.8,1.6-2.7,2.4
			c-0.9,0.9-1.7,1.7-2.4,2.7c-0.8,0.9-1.5,1.9-2.2,2.9s-1.3,2-1.9,3s-1.2,2.1-1.7,3.2s-1,2.2-1.4,3.3c-0.4,1.1-0.8,2.3-1.1,3.4
			c-0.3,1.2-0.6,2.3-0.8,3.5s-0.4,2.4-0.5,3.6s-0.2,2.4-0.2,3.6s0.1,2.4,0.2,3.6c0.1,1.2,0.3,2.4,0.5,3.6c0.2,1.2,0.5,2.4,0.8,3.5
			c0.3,1.2,0.7,2.3,1.1,3.4c0.2,0.5,0.3,0.9,0.5,1.4c0.4,1.1,1.7,1.6,2.7,1.1l1.9-0.9l3.8-1.8l3.8-1.7l3.8-1.8l2.7-1.3
			c0.6-0.3,0.8-0.9,0.6-1.5c-0.1-0.2-0.2-0.4-0.3-0.7c-0.2-0.6-0.4-1.1-0.5-1.7c-0.2-0.6-0.3-1.2-0.4-1.8s-0.2-1.2-0.2-1.8
			c-0.1-0.6-0.1-1.2-0.1-1.8s0-1.2,0.1-1.8s0.1-1.2,0.2-1.8c0.1-0.6,0.2-1.2,0.4-1.8c0.2-0.6,0.3-1.2,0.5-1.7
			c0.2-0.6,0.4-1.1,0.7-1.7c0.3-0.5,0.5-1.1,0.8-1.6s0.6-1,1-1.5c0.3-0.5,0.7-1,1.1-1.4c0.4-0.5,0.8-0.9,1.2-1.3
			c0.4-0.4,0.9-0.8,1.3-1.2c0.5-0.4,0.9-0.8,1.4-1.1c0.5-0.3,1-0.7,1.5-1s1.1-0.6,1.6-0.8c0.5-0.3,1.1-0.5,1.7-0.7
			c0.2-0.1,0.4-0.2,0.7-0.2c0.6-0.2,0.9-0.8,0.8-1.4L96.1,105.8z"/>
		<path id="_x39_" class="st5" d="M149.2,102.8c-0.8-1.4-1.6-2.7-2.5-4s-1.9-2.5-2.9-3.7s-2.1-2.4-3.2-3.5c-1.1-1.1-2.3-2.2-3.5-3.2
			s-2.4-2-3.7-2.9s-2.6-1.7-4-2.5s-2.7-1.5-4.2-2.2c-1.4-0.7-2.9-1.3-4.3-1.8c-1.5-0.5-3-1-4.5-1.4s-3-0.7-4.6-1
			c-1.5-0.3-3.1-0.5-4.7-0.6c-1.5-0.1-3.1-0.2-4.7-0.2s-3.1,0.1-4.7,0.2s-3.1,0.3-4.7,0.6c-1.5,0.3-3.1,0.6-4.6,1s-3,0.9-4.5,1.4
			s-2.9,1.1-4.3,1.8c-1.4,0.7-2.8,1.4-4.2,2.2c-1.4,0.8-2.7,1.6-4,2.5s-2.5,1.8-3.7,2.9c-1.2,1-2.4,2.1-3.5,3.2S62,93.9,61,95.1
			c-0.6,0.7-1.1,1.4-1.7,2.1c-0.7,0.9-0.5,2.2,0.5,2.8l1.7,1.2l3.4,2.4l1.8,1.2c0.9,0.6,2.1,0.5,2.7-0.4c0.4-0.5,0.7-0.9,1.1-1.3
			c0.8-0.9,1.6-1.8,2.4-2.7c0.8-0.9,1.7-1.7,2.7-2.4c0.9-0.8,1.9-1.5,2.9-2.2s2-1.3,3-1.9s2.1-1.2,3.2-1.7s2.2-1,3.3-1.4
			c1.1-0.4,2.3-0.8,3.4-1.1c1.2-0.3,2.3-0.6,3.5-0.8c1.2-0.2,2.4-0.4,3.6-0.5s2.4-0.2,3.6-0.2s2.4,0.1,3.6,0.2s2.4,0.3,3.6,0.5
			s2.4,0.5,3.5,0.8c1.2,0.3,2.3,0.7,3.4,1.1s2.3,0.9,3.3,1.4c1.1,0.5,2.2,1.1,3.2,1.7s2.1,1.3,3,1.9c1,0.7,1.9,1.4,2.9,2.2
			c0.9,0.8,1.8,1.6,2.7,2.4c0.9,0.9,1.7,1.7,2.4,2.7c0.8,0.9,1.5,1.9,2.2,2.9s1.3,2,1.9,3c0.3,0.5,0.6,1,0.8,1.5
			c0.5,0.9,1.7,1.3,2.6,0.9l2-0.9l3.7-1.7l1.9-0.9c1-0.5,1.5-1.7,1-2.7C150,104.4,149.6,103.6,149.2,102.8z"/>
		<g id="mazenta">
			<path id="_x31_0" class="st6" d="M118.8,174.5c-0.4-1-1.5-1.6-2.5-1.2c-0.6,0.2-1.3,0.4-1.9,0.6c-1.3,0.3-2.6,0.6-3.9,0.9
				c-1.3,0.2-2.6,0.4-3.9,0.5s-2.6,0.2-4,0.2c-1.3,0-2.7-0.1-4-0.2c-1.3-0.1-2.6-0.3-3.9-0.5s-2.6-0.5-3.9-0.9
				c-1.3-0.3-2.6-0.7-3.8-1.2c-1.3-0.5-2.5-1-3.7-1.5c-1.2-0.6-2.4-1.2-3.5-1.8c-1.2-0.7-2.3-1.4-3.4-2.1c-1.1-0.8-2.1-1.6-3.2-2.4
				c-1-0.8-2-1.7-2.9-2.7c-0.9-0.9-1.8-1.9-2.7-2.9c-0.9-1-1.7-2.1-2.4-3.2c-0.8-1.1-1.5-2.2-2.1-3.3c-0.7-1.1-1.3-2.3-1.8-3.5
				c-0.6-1.2-1.1-2.4-1.5-3.7c-0.5-1.2-0.8-2.5-1.2-3.8c-0.3-1.3-0.6-2.6-0.9-3.9c-0.2-1.3-0.4-2.6-0.5-3.9c-0.1-1.3-0.2-2.6-0.2-4
				c0-1.3,0.1-2.7,0.2-4c0.1-1.3,0.3-2.6,0.5-3.9c0.1-0.7,0.2-1.3,0.4-2c0.2-1.1-0.4-2.2-1.4-2.4h-0.1c-1.1-0.3-2.2,0.4-2.5,1.5
				c-0.2,0.7-0.3,1.5-0.4,2.3c-0.2,1.4-0.4,2.8-0.6,4.3c-0.1,1.4-0.2,2.9-0.2,4.3c0,1.5,0.1,2.9,0.2,4.3c0.1,1.5,0.3,2.9,0.6,4.3
				c0.3,1.4,0.6,2.8,0.9,4.2c0.4,1.4,0.8,2.8,1.3,4.1c0.5,1.4,1.1,2.7,1.7,4c0.6,1.3,1.3,2.6,2,3.8c0.7,1.3,1.5,2.5,2.3,3.7
				s1.7,2.3,2.6,3.4c0.9,1.1,1.9,2.2,2.9,3.2s2.1,2,3.2,2.9s2.3,1.8,3.4,2.6c1.2,0.8,2.4,1.6,3.7,2.3c1.2,0.7,2.5,1.4,3.8,2
				s2.6,1.2,4,1.7s2.7,0.9,4.1,1.3c1.4,0.4,2.8,0.7,4.2,0.9c1.4,0.3,2.8,0.4,4.3,0.6c1.4,0.1,2.9,0.2,4.3,0.2s2.9-0.1,4.3-0.2
				c1.5-0.1,2.9-0.3,4.3-0.6s2.9-0.6,4.2-0.9c0.7-0.2,1.5-0.4,2.2-0.6c1.1-0.3,1.6-1.5,1.2-2.6L118.8,174.5z"/>
			<path id="_x31_6" class="st6" d="M87.9,138.1c0.2,0.4,0.5,0.8,0.8,1.2s0.6,0.8,0.9,1.1c0.3,0.4,0.6,0.7,1,1.1
				c0.3,0.3,0.7,0.7,1.1,1s0.8,0.6,1.2,0.9c0.4,0.3,0.8,0.5,1.2,0.8c0.4,0.2,0.8,0.5,1.3,0.7c0.4,0.2,0.9,0.4,1.3,0.6
				c0.5,0.2,0.9,0.3,1.4,0.4c0.5,0.1,0.9,0.2,1.4,0.3s0.9,0.2,1.4,0.2c0.1,0,0.1,0,0.2,0c0.7,0.1,1.2-0.5,1.2-1.2v-2.9v-4.1
				c-0.2,0-0.5,0-0.7,0s-0.5-0.1-0.7-0.1s-0.5-0.1-0.7-0.2c-0.2-0.1-0.5-0.1-0.7-0.2c-0.2-0.1-0.5-0.2-0.7-0.3s-0.4-0.2-0.6-0.3
				s-0.4-0.2-0.6-0.4c-0.2-0.1-0.4-0.3-0.6-0.4c-0.2-0.2-0.4-0.3-0.5-0.5c-0.2-0.2-0.3-0.4-0.5-0.5c-0.2-0.2-0.3-0.4-0.4-0.6
				c-0.1-0.2-0.3-0.4-0.4-0.6c-0.1-0.2-0.2-0.4-0.3-0.6c-0.1-0.2-0.2-0.4-0.3-0.7l-3.9,1.4l-2.8,1c-0.6,0.2-0.9,0.9-0.7,1.6
				c0,0.1,0.1,0.1,0.1,0.2C87.4,137.2,87.6,137.6,87.9,138.1z"/>
		</g>
		<g id="cyan">
			<path id="_x31_4" class="st7" d="M127.3,127.6c-0.1-0.7-0.2-1.4-0.3-2.2c-0.1-0.3-0.1-0.6-0.2-1c-0.1-0.6-0.8-1-1.4-0.9l-2.9,0.8
				l-2.9,0.8c-0.6,0.2-0.9,0.7-0.8,1.3c0,0.1,0,0.3,0.1,0.4c0.1,0.5,0.2,0.9,0.2,1.4c0,0.5,0.1,1,0.1,1.4c0,0.5,0,1-0.1,1.4
				c0,0.5-0.1,1-0.2,1.4c-0.1,0.5-0.2,1-0.3,1.4c-0.1,0.5-0.3,0.9-0.4,1.4c-0.2,0.5-0.4,0.9-0.6,1.3c-0.2,0.4-0.4,0.9-0.7,1.3
				c-0.2,0.4-0.5,0.8-0.8,1.2s-0.6,0.8-0.9,1.1c-0.3,0.4-0.6,0.7-1,1.1c-0.3,0.3-0.7,0.7-1.1,1s-0.8,0.6-1.2,0.9
				c-0.4,0.3-0.8,0.5-1.2,0.8c-0.4,0.2-0.8,0.5-1.3,0.7c-0.4,0.2-0.9,0.4-1.3,0.6c-0.5,0.2-0.9,0.3-1.4,0.4
				c-0.5,0.1-0.9,0.2-1.4,0.3s-0.9,0.2-1.4,0.2s-1,0.1-1.4,0.1c-0.5,0-1,0-1.4-0.1c-0.5,0-1-0.1-1.4-0.2c-0.5-0.1-0.9-0.2-1.4-0.3
				s-0.9-0.3-1.4-0.4c-0.5-0.2-0.9-0.4-1.3-0.6c-0.4-0.2-0.9-0.4-1.3-0.7c-0.4-0.2-0.8-0.5-1.2-0.8c-0.1-0.1-0.2-0.1-0.3-0.2
				c-0.5-0.4-1.2-0.3-1.5,0.2l-1.9,2.3l-1.9,2.3c-0.4,0.5-0.3,1.3,0.2,1.7c0.3,0.2,0.5,0.4,0.8,0.6c0.6,0.4,1.2,0.8,1.8,1.2
				c0.6,0.4,1.3,0.7,1.9,1c0.7,0.3,1.3,0.6,2,0.8s1.4,0.5,2.1,0.6c0.7,0.2,1.4,0.3,2.1,0.5c0.7,0.1,1.4,0.2,2.2,0.3
				c0.7,0.1,1.4,0.1,2.2,0.1c0.7,0,1.5,0,2.2-0.1s1.4-0.2,2.2-0.3c0.7-0.1,1.4-0.3,2.1-0.5s1.4-0.4,2.1-0.7c0.7-0.2,1.4-0.5,2-0.8
				c0.7-0.3,1.3-0.6,1.9-1s1.2-0.7,1.8-1.2c0.6-0.4,1.2-0.9,1.7-1.3c0.6-0.5,1.1-1,1.6-1.5s1-1,1.5-1.6c0.5-0.5,0.9-1.1,1.3-1.7
				c0.4-0.6,0.8-1.2,1.2-1.8c0.4-0.6,0.7-1.3,1-1.9c0.3-0.7,0.6-1.3,0.8-2c0.2-0.7,0.5-1.4,0.6-2.1c0.2-0.7,0.3-1.4,0.5-2.1
				c0.1-0.7,0.2-1.4,0.3-2.2c0.1-0.7,0.1-1.4,0.1-2.2C127.4,129,127.4,128.3,127.3,127.6z"/>
			<path id="_x36_" class="st7" d="M92.9,76.7c1.5-0.3,3.1-0.5,4.7-0.6c0.9-0.1,1.8-0.1,2.8-0.2c1.1,0,1.9-0.9,1.9-2v-2.2v-2.1
				c0-1.2-0.9-2-2.1-2c-1.1,0-2.2,0.1-3.3,0.2c-1.8,0.2-3.6,0.4-5.4,0.7c-1.8,0.3-3.6,0.7-5.3,1.2c-1.8,0.5-3.5,1-5.2,1.6
				s-3.4,1.3-5,2.1c-1.6,0.8-3.2,1.6-4.8,2.5c-1.6,0.9-3.1,1.9-4.6,2.9s-2.9,2.1-4.3,3.3c-1.4,1.2-2.7,2.4-4,3.7
				c-1.3,1.3-2.5,2.6-3.7,4s-2.3,2.8-3.3,4.3s-2,3-2.9,4.6s-1.7,3.2-2.5,4.8c-0.8,1.6-1.5,3.3-2.1,5s-1.2,3.4-1.6,5.2
				c-0.5,1.7-0.9,3.5-1.2,5.3s-0.5,3.6-0.7,5.4s-0.2,3.6-0.2,5.4c0,1.8,0.1,3.6,0.2,5.4c0.2,1.8,0.4,3.6,0.7,5.4
				c0.3,1.8,0.7,3.6,1.2,5.3c0.5,1.8,1,3.5,1.6,5.2s1.3,3.4,2.1,5s1.6,3.2,2.5,4.8s1.9,3.1,2.9,4.6s2.1,2.9,3.3,4.3
				c1.2,1.4,2.4,2.7,3.7,4c0.8,0.8,1.6,1.5,2.4,2.3c0.9,0.8,2.2,0.7,2.9-0.2l1.4-1.6l1.4-1.7c0.7-0.8,0.6-2.1-0.2-2.8
				c-0.7-0.6-1.4-1.3-2-1.9c-1.1-1.1-2.2-2.3-3.2-3.5s-2-2.4-2.9-3.7s-1.7-2.6-2.5-4s-1.5-2.7-2.2-4.2c-0.7-1.4-1.3-2.9-1.8-4.3
				c-0.5-1.5-1-3-1.4-4.5s-0.7-3-1-4.6c-0.3-1.5-0.5-3.1-0.6-4.7c-0.1-1.5-0.2-3.1-0.2-4.7c0-1.6,0.1-3.1,0.2-4.7
				c0.1-1.6,0.3-3.1,0.6-4.7s0.6-3.1,1-4.6s0.9-3,1.4-4.5s1.1-2.9,1.8-4.3s1.4-2.8,2.2-4.2c0.8-1.4,1.6-2.7,2.5-4S60,96.2,61,95
				s2.1-2.4,3.2-3.5c1.1-1.1,2.3-2.2,3.5-3.2s2.4-2,3.7-2.9c1.3-0.9,2.6-1.8,4-2.5c1.4-0.8,2.7-1.5,4.2-2.2c1.4-0.7,2.9-1.3,4.3-1.8
				c1.5-0.5,3-1,4.5-1.4C89.8,77.3,91.3,77,92.9,76.7z"/>
		</g>
		<g id="_x31_11">
			<path id="_x31_1" class="st8" d="M135.5,126.9c-0.1-1-0.2-1.9-0.4-2.9s-0.4-1.9-0.6-2.8c-0.3-0.9-0.5-1.9-0.9-2.8
				c-0.3-0.9-0.7-1.8-1.1-2.7c-0.4-0.9-0.9-1.7-1.3-2.6c-0.5-0.8-1-1.6-1.6-2.4c-0.5-0.8-1.1-1.6-1.8-2.3s-1.3-1.4-2-2.1
				s-1.4-1.3-2.1-2c-0.7-0.6-1.5-1.2-2.3-1.8c-0.8-0.6-1.6-1.1-2.4-1.6c-0.2-0.1-0.4-0.2-0.7-0.4c-1-0.6-2.3-0.1-2.8,0.9l-0.9,1.9
				l-0.9,2c-0.4,1-0.1,2.1,0.9,2.6c0.1,0,0.2,0.1,0.2,0.1c0.6,0.4,1.2,0.7,1.8,1.2c0.6,0.4,1.2,0.9,1.7,1.3c0.6,0.5,1.1,1,1.6,1.5
				s1,1,1.5,1.6c0.5,0.5,0.9,1.1,1.3,1.7s0.8,1.2,1.2,1.8c0.4,0.6,0.7,1.3,1,1.9c0.3,0.7,0.6,1.3,0.8,2c0.2,0.7,0.5,1.4,0.6,2.1
				c0.2,0.7,0.3,1.4,0.5,2.1c0.1,0.7,0.2,1.4,0.3,2.2c0.1,0.7,0.1,1.4,0.1,2.2c0,0.7,0,1.4-0.1,2.2c-0.1,0.7-0.2,1.4-0.3,2.2
				c-0.1,0.7-0.3,1.4-0.5,2.1c-0.2,0.7-0.4,1.4-0.6,2.1c-0.3,0.7-0.5,1.4-0.8,2c-0.3,0.7-0.6,1.3-1,1.9c-0.4,0.6-0.8,1.2-1.2,1.8
				c-0.4,0.6-0.9,1.2-1.3,1.7c-0.1,0.1-0.1,0.1-0.2,0.2c-0.7,0.8-0.7,2,0.1,2.8l1.6,1.6l1.5,1.5c0.8,0.8,2.2,0.8,2.9-0.1
				c0.2-0.2,0.3-0.4,0.5-0.6c0.6-0.7,1.2-1.5,1.8-2.3c0.6-0.8,1.1-1.6,1.6-2.4c0.5-0.8,0.9-1.7,1.3-2.6c0.4-0.9,0.8-1.8,1.1-2.7
				s0.6-1.8,0.9-2.8c0.3-0.9,0.5-1.9,0.6-2.8c0.2-0.9,0.3-1.9,0.4-2.9c0.1-1,0.1-1.9,0.1-2.9C135.7,128.8,135.6,127.8,135.5,126.9z"
				/>
			<path id="_x34__1_" class="st8" d="M115.5,203.2l-0.7-4.1L114,195l-0.4-2.1c-0.2-1.1-1.2-1.8-2.2-1.6c-1.1,0.2-2.3,0.3-3.5,0.4
				c-1.8,0.2-3.6,0.2-5.4,0.2s-3.6-0.1-5.4-0.2c-1.8-0.2-3.6-0.4-5.4-0.7s-3.6-0.7-5.3-1.2c-1.8-0.5-3.5-1-5.2-1.6s-3.4-1.3-5-2.1
				s-3.2-1.6-4.8-2.5c-1.6-0.9-3.1-1.9-4.6-2.9s-2.9-2.1-4.3-3.3c-1.4-1.2-2.7-2.4-4-3.7s-2.5-2.6-3.7-4s-2.3-2.8-3.3-4.3
				s-2-3-2.9-4.6s-1.7-3.2-2.5-4.8s-1.5-3.3-2.1-5c-0.4-1.1-0.8-2.2-1.1-3.3c-0.3-1-1.4-1.6-2.4-1.3l-2.1,0.6l-4,1.1l-4,1.1l-4,1.1
				l-2,0.5c-1.1,0.3-1.7,1.4-1.4,2.5c0.5,1.7,1,3.3,1.6,4.9c0.8,2.3,1.8,4.5,2.8,6.7s2.1,4.3,3.3,6.4c1.2,2.1,2.5,4.1,3.9,6.1
				s2.9,3.9,4.4,5.7s3.2,3.6,4.9,5.3s3.5,3.3,5.3,4.9c1.8,1.5,3.8,3,5.7,4.4c2,1.4,4,2.7,6.1,3.9s4.2,2.3,6.4,3.3
				c2.2,1,4.4,1.9,6.7,2.8c2.3,0.8,4.6,1.5,6.9,2.2c2.3,0.6,4.7,1.1,7.1,1.6c2.4,0.4,4.7,0.7,7.2,0.9c2.4,0.2,4.8,0.3,7.2,0.3
				c2.4,0,4.8-0.1,7.2-0.3c1.7-0.2,3.5-0.4,5.2-0.6c1.1-0.2,1.9-1.2,1.7-2.3l-0.4-2.1L115.5,203.2z"/>
		</g>
		<g id="blue">
			<path id="_x38_" class="st9" d="M160.9,108.5c-0.4-1-0.8-2.1-1.2-3.1c-0.4-1.1-1.7-1.5-2.7-1l-1.9,0.9l-3.8,1.8l-3.8,1.8
				l-3.7,1.7l-3.8,1.8l-3.8,1.7l-2,0.9c-0.9,0.4-1.4,1.6-1,2.6c0.1,0.3,0.2,0.6,0.4,0.9c0.1,0.3,0.2,0.6,0.3,0.9
				c0.3,1,1.4,1.6,2.4,1.3l2.1-0.6l4-1.1l4-1.1l4-1.1l4-1.1l4-1.1l2-0.5c1.1-0.3,1.7-1.5,1.4-2.5
				C161.7,110.6,161.3,109.6,160.9,108.5z"/>
			<path id="_x31_7" class="st9" d="M106.7,122.6c-0.2-0.1-0.4-0.2-0.6-0.3c-0.2-0.1-0.4-0.2-0.7-0.3c-0.2-0.1-0.5-0.2-0.7-0.2
				c-0.2-0.1-0.5-0.1-0.7-0.2c-0.2,0-0.5-0.1-0.7-0.1s-0.5,0-0.7,0s-0.5,0-0.7,0s-0.5,0.1-0.7,0.1s-0.5,0.1-0.7,0.2
				s-0.5,0.1-0.7,0.2s-0.5,0.2-0.7,0.3c-0.2,0.1-0.4,0.2-0.6,0.3c-0.2,0.1-0.4,0.2-0.6,0.4c-0.2,0.1-0.4,0.3-0.6,0.4
				c-0.2,0.2-0.4,0.3-0.5,0.5c-0.2,0.2-0.3,0.4-0.5,0.5c-0.2,0.2-0.3,0.4-0.4,0.6s-0.3,0.4-0.4,0.6s-0.2,0.4-0.3,0.6
				c-0.1,0.2-0.2,0.4-0.3,0.7c-0.1,0.2-0.2,0.5-0.2,0.7c-0.1,0.2-0.1,0.5-0.2,0.7c0,0.2-0.1,0.5-0.1,0.7s0,0.5,0,0.7s0,0.5,0,0.7
				s0,0.5,0.1,0.7c0,0.2,0.1,0.5,0.2,0.7s0.1,0.5,0.2,0.7s0.2,0.5,0.3,0.7c0.1,0.2,0.2,0.4,0.3,0.6c0.1,0.2,0.3,0.4,0.4,0.6
				c0.1,0.2,0.3,0.4,0.4,0.6c0.2,0.2,0.3,0.4,0.5,0.5c0.2,0.2,0.4,0.3,0.5,0.5c0.2,0.2,0.4,0.3,0.6,0.4c0.2,0.1,0.4,0.3,0.6,0.4
				c0.2,0.1,0.4,0.2,0.6,0.3s0.4,0.2,0.7,0.3c0.2,0.1,0.5,0.2,0.7,0.2c0.2,0.1,0.5,0.1,0.7,0.2c0.2,0,0.5,0.1,0.7,0.1s0.5,0,0.7,0
				s0.5,0,0.7,0s0.5,0,0.7-0.1c0.2,0,0.5-0.1,0.7-0.2c0.2-0.1,0.5-0.1,0.7-0.2c0.2-0.1,0.5-0.2,0.7-0.3s0.4-0.2,0.6-0.3
				s0.4-0.3,0.6-0.4c0.2-0.1,0.4-0.3,0.6-0.4l-4.4-5.3c-0.5-0.6-0.6-1.6-0.2-2.3L106.7,122.6z"/>
			<path id="_x33_" class="st9" d="M70.1,60.3c-0.5-1-1.7-1.5-2.7-1c-1.4,0.7-2.9,1.5-4.3,2.3c-2,1.2-3.9,2.4-5.8,3.7
				c-1.9,1.3-3.7,2.7-5.4,4.2c-1.8,1.5-3.4,3-5.1,4.6c-1.6,1.6-3.2,3.3-4.6,5.1c-1.5,1.8-2.9,3.6-4.2,5.4c-1.3,1.9-2.5,3.8-3.7,5.8
				c-1.1,2-2.2,4-3.2,6.1s-1.8,4.2-2.6,6.3c-0.8,2.1-1.5,4.3-2.1,6.5s-1.1,4.4-1.5,6.7c-0.4,2.2-0.7,4.5-0.9,6.8
				c-0.2,2.3-0.3,4.5-0.3,6.9c0,2.3,0.1,4.6,0.3,6.9c0.2,2.3,0.5,4.6,0.9,6.8c0.3,1.6,0.6,3.2,1,4.7c0.3,1.1,1.4,1.7,2.5,1.5l2-0.5
				l2.1-0.6c1.1-0.3,1.7-1.4,1.4-2.4c-0.3-1.3-0.6-2.7-0.8-4.1c-0.4-2-0.6-4-0.8-6.1c-0.2-2-0.3-4.1-0.3-6.1c0-2.1,0.1-4.1,0.3-6.1
				c0.2-2.1,0.4-4.1,0.8-6.1c0.4-2,0.8-4,1.3-6s1.1-3.9,1.8-5.9c0.7-1.9,1.5-3.8,2.4-5.7c0.9-1.9,1.8-3.7,2.8-5.5s2.1-3.5,3.3-5.2
				s2.4-3.3,3.7-4.9s2.7-3.1,4.1-4.5c1.4-1.4,3-2.8,4.5-4.1c1.6-1.3,3.2-2.6,4.9-3.7c1.7-1.2,3.4-2.3,5.2-3.3c1.2-0.7,2.4-1.4,3.7-2
				c1-0.5,1.4-1.7,1-2.7l-0.9-2L70.1,60.3z"/>
		</g>
	</g>
	<g class="st10">
		<path class="st11" d="M245.6,140.8c1.6,0,3,1.4,3,3.1V179c0,1.4-1.1,2.6-2.5,2.6c-1.4,0-2.6-1.1-2.6-2.6v-28.4
			c0-0.1-0.1-0.2-0.2-0.1l-5.8,11.4c-1.1,2.2-3.6,4.1-6,3.3c-1.6-0.5-2.9-1.7-3.7-3.3l-5.5-10.5c-0.1-0.1-0.2-0.1-0.2,0.1v27.6
			c0,1.4-1.1,2.5-2.5,2.5c-1.3,0-2.4-1.1-2.4-2.5v-35.6c0-1.4,1.2-2.6,2.6-2.6c1.6,0,3.1,0.9,3.9,2.3l8.7,16.6
			c0.1,0.2,0.5,0.2,0.6,0l8.2-16.1C242,141.9,243.8,140.8,245.6,140.8z"/>
		<path class="st11" d="M275.8,176.1c0,3-2.3,5.4-5.2,5.5h-11c-2.3,0-4.2-1.9-4.2-4.2v-11.2c0-2.2,1.9-4.1,4.2-4.1H270
			c0.4,0,0.8-0.4,0.8-0.8v-4c0-0.5-0.4-0.8-0.8-0.8h-11.6c-1.3,0-2.3-1-2.3-2.3c0-1.2,1.1-2.3,2.3-2.3h13.4c2.2,0,4.1,1.8,4.1,4.1
			V176.1z M260.3,167.6v8.6c0,0.5,0.3,0.8,0.8,0.8h8.8c0.4,0,0.8-0.4,0.8-0.8v-8.6c0-0.5-0.4-0.8-0.8-0.8h-8.8
			C260.6,166.8,260.3,167.1,260.3,167.6z"/>
		<path class="st11" d="M282.7,190c0-1.3,1.1-2.3,2.3-2.3h12.1c0.5,0,0.8-0.4,0.8-0.8v-5.7c0-0.4-0.3-0.8-0.8-0.8h-10.4
			c-2.3,0-4.1-1.8-4.1-4.1v-22.1c0-1.3,1.1-2.4,2.4-2.4c1.4,0,2.5,1.1,2.5,2.4v20.9c0,0.4,0.4,0.8,0.8,0.8h8.8
			c0.5,0,0.8-0.4,0.8-0.8v-20.8c0-1.3,1.2-2.5,2.6-2.5c1.4,0,2.5,1.1,2.5,2.5v32.6c0,2.9-2.5,5.4-5.5,5.4H285
			C283.7,192.4,282.7,191.3,282.7,190z"/>
		<path class="st11" d="M342.4,140.8c1.3,0,2.3,1.1,2.3,2.4s-1.1,2.4-2.3,2.4h-12.3c-0.5,0-0.8,0.4-0.8,0.8v8.7
			c0,0.4,0.4,0.8,0.8,0.8h10.5c1.3,0,2.3,1.1,2.3,2.4c0,1.3-1,2.4-2.3,2.4h-10.5c-0.5,0-0.8,0.4-0.8,0.8V179c0,1.4-1.1,2.6-2.6,2.6
			c-1.4,0-2.6-1.1-2.6-2.6v-34c0-2.3,1.9-4.2,4.2-4.2H342.4z"/>
		<path class="st11" d="M355.2,181.6c-3,0-5.4-2.5-5.4-5.5v-20.2c0-2.3,1.8-4.1,4.1-4.1h11.9c2.2,0,4,1.8,4,4.1v6.7
			c0,2.3-1.8,4.2-4,4.2h-10.1c-0.4,0-0.8,0.4-0.8,0.8v8.5c0,0.5,0.4,0.8,0.8,0.8h12.2c1.2,0,2.2,1,2.2,2.2c0,1.3-1,2.3-2.2,2.3
			H355.2z M354.8,157.3v4.1c0,0.5,0.4,0.8,0.8,0.8h8.4c0.4,0,0.8-0.4,0.8-0.8v-4.1c0-0.5-0.4-0.8-0.8-0.8h-8.4
			C355.2,156.4,354.8,156.8,354.8,157.3z"/>
		<path class="st11" d="M377.9,181.6c-1.3,0-2.3-1-2.3-2.3c0-1.3,1-2.3,2.3-2.3h12.6c0.5,0,0.8-0.4,0.8-0.8v-8
			c0-0.4-0.4-0.7-0.8-0.7H380c-2.3,0-4.1-1.9-4.1-4.2v-7.3c0-2.3,1.8-4.1,4.1-4.1h14.2c1.3,0,2.3,1.1,2.3,2.3c0,1.3-1,2.3-2.3,2.3
			h-12.5c-0.5,0-0.8,0.4-0.8,0.8v4c0,0.5,0.3,0.8,0.8,0.8h10.5c2.3,0,4.2,1.8,4.2,4.1v9.9c0,3-2.5,5.5-5.5,5.5H377.9z"/>
		<path class="st11" d="M404.3,156.9c0-0.2-0.2-0.5-0.5-0.5h-0.4c-1.3,0-2.3-1-2.3-2.3c0-1.2,1-2.3,2.3-2.3h0.4
			c0.3,0,0.5-0.2,0.5-0.5v-7.2c0-1.4,1.1-2.5,2.5-2.5c1.4,0,2.5,1.1,2.5,2.5v6.8c0,0.5,0.4,0.8,0.8,0.8h3.1c1.2,0,2.3,1.1,2.3,2.3
			c0,1.3-1.1,2.3-2.3,2.3h-3.1c-0.5,0-0.8,0.4-0.8,0.8v19c0,0.5,0.4,0.8,0.8,0.8h4.1c1.1,0,2.2,1,2.2,2.2c0,1.3-1,2.3-2.2,2.3h-4.5
			c-3,0-5.4-2.5-5.4-5.5V156.9z"/>
		<path class="st11" d="M424.7,146.9c0,1.3-1,2.4-2.3,2.4H422c-1.3,0-2.3-1.1-2.3-2.4c0-1.3,1-2.3,2.3-2.3h0.4
			C423.7,144.5,424.7,145.6,424.7,146.9z M424.7,154.3v24.7c0,1.4-1.1,2.5-2.5,2.5s-2.5-1.1-2.5-2.5v-24.7c0-1.3,1.1-2.5,2.5-2.5
			S424.7,153,424.7,154.3z"/>
		<path class="st11" d="M450.6,154.3l-8.4,25.4c-0.4,1.1-1.5,1.9-2.8,1.9c-1.2,0-2.3-0.8-2.7-1.9l-8.3-25.5
			c-0.4-1.1,0.5-2.3,1.7-2.3c1.3,0,2.6,0.9,3,2.2l6.1,18.5c0.1,0.2,0.3,0.2,0.4,0l6.1-18.4c0.5-1.3,1.8-2.3,3.2-2.3
			C450.1,151.8,451,153.1,450.6,154.3z"/>
		<path class="st11" d="M474.7,176.1c0,3-2.3,5.4-5.2,5.5h-11c-2.3,0-4.2-1.9-4.2-4.2v-11.2c0-2.2,1.9-4.1,4.2-4.1h10.4
			c0.4,0,0.8-0.4,0.8-0.8v-4c0-0.5-0.4-0.8-0.8-0.8h-11.6c-1.3,0-2.3-1-2.3-2.3c0-1.2,1.1-2.3,2.3-2.3h13.4c2.2,0,4.1,1.8,4.1,4.1
			V176.1z M459.2,167.6v8.6c0,0.5,0.3,0.8,0.8,0.8h8.8c0.4,0,0.8-0.4,0.8-0.8v-8.6c0-0.5-0.4-0.8-0.8-0.8H460
			C459.5,166.8,459.2,167.1,459.2,167.6z"/>
		<path class="st11" d="M483.9,181.6c-1.4,0-2.5-1.1-2.5-2.5v-34.9c0-1.4,1.1-2.5,2.5-2.5c1.4,0,2.5,1.1,2.5,2.5v34.9
			C486.4,180.4,485.3,181.6,483.9,181.6z"/>
	</g>
	<g class="st10">
		<path class="st11" d="M219.2,116.8c0-0.1-0.1-0.3-0.3-0.3h-0.2c-0.7,0-1.2-0.6-1.2-1.2c0-0.6,0.5-1.2,1.2-1.2h0.2
			c0.2,0,0.3-0.1,0.3-0.3v-3.9c0-0.7,0.6-1.4,1.3-1.4c0.7,0,1.4,0.6,1.4,1.4v3.7c0,0.3,0.2,0.5,0.5,0.5h1.7c0.6,0,1.2,0.6,1.2,1.2
			c0,0.7-0.6,1.2-1.2,1.2h-1.7c-0.3,0-0.5,0.2-0.5,0.5v10.2c0,0.3,0.2,0.5,0.5,0.5h2.2c0.6,0,1.2,0.6,1.2,1.2c0,0.7-0.6,1.2-1.2,1.2
			h-2.4c-1.6,0-2.9-1.3-2.9-3V116.8z"/>
		<path class="st11" d="M238.5,128.7c0,0.7-0.6,1.3-1.3,1.3c-0.7,0-1.3-0.6-1.3-1.3v-11.8c0-0.3-0.2-0.5-0.4-0.5h-4.8
			c-0.2,0-0.4,0.2-0.4,0.5v11.7c0,0.7-0.6,1.4-1.4,1.4c-0.7,0-1.4-0.6-1.4-1.4v-18.8c0-0.7,0.6-1.3,1.4-1.3c0.7,0,1.4,0.6,1.4,1.4
			v3.7c0,0.3,0.2,0.5,0.4,0.5h4.9c1.6,0,2.9,1.3,2.9,2.9V128.7z"/>
		<path class="st11" d="M245.1,130.1c-1.6,0-2.9-1.3-2.9-3v-10.9c0-1.2,1-2.2,2.2-2.2h6.4c1.2,0,2.2,1,2.2,2.2v3.6
			c0,1.2-1,2.2-2.2,2.2h-5.5c-0.2,0-0.5,0.2-0.5,0.5v4.6c0,0.3,0.2,0.5,0.5,0.5h6.6c0.6,0,1.2,0.6,1.2,1.2c0,0.7-0.5,1.2-1.2,1.2
			H245.1z M244.9,116.9v2.2c0,0.3,0.2,0.5,0.5,0.5h4.5c0.2,0,0.5-0.2,0.5-0.5v-2.2c0-0.3-0.2-0.5-0.5-0.5h-4.5
			C245.1,116.5,244.9,116.7,244.9,116.9z"/>
		<path class="st11" d="M266,108.1h9.1c1.2,0,2.2,1,2.2,2.2v16.8c0,1.6-1.3,2.9-2.9,3h-9.4c-0.7,0-1.2-0.6-1.2-1.3s0.5-1.2,1.2-1.2
			h9.1c0.3,0,0.4-0.2,0.4-0.5v-7.6c0-0.2-0.2-0.4-0.4-0.4H266c-1.2,0-2.2-1-2.2-2.2v-6.5C263.8,109.1,264.8,108.1,266,108.1z
			 M274.6,116.1V111c0-0.2-0.2-0.4-0.4-0.4h-7.2c-0.2,0-0.4,0.2-0.4,0.4v5.1c0,0.2,0.2,0.4,0.4,0.4h7.2
			C274.4,116.5,274.6,116.3,274.6,116.1z"/>
		<path class="st11" d="M279.2,109.4c0-0.6,0.6-1.2,1.3-1.2h4c1.2,0,2.2,1,2.2,2.2v18.3c0,0.7-0.6,1.4-1.3,1.4
			c-0.7,0-1.4-0.6-1.4-1.4V111c0-0.3-0.2-0.4-0.5-0.4h-3.1C279.8,110.6,279.2,110,279.2,109.4z"/>
		<path class="st11" d="M291.6,130.1c-0.7,0-1.2-0.6-1.2-1.3c0-0.7,0.6-1.2,1.2-1.2h6.8c0.3,0,0.5-0.2,0.5-0.5v-4.3
			c0-0.2-0.2-0.4-0.5-0.4h-5.7c-1.2,0-2.2-1-2.2-2.2v-3.9c0-1.2,1-2.2,2.2-2.2h7.7c0.7,0,1.2,0.6,1.2,1.2c0,0.7-0.6,1.2-1.2,1.2
			h-6.7c-0.3,0-0.4,0.2-0.4,0.5v2.2c0,0.3,0.2,0.5,0.4,0.5h5.7c1.2,0,2.2,1,2.2,2.2v5.3c0,1.6-1.3,3-3,3H291.6z"/>
		<path class="st11" d="M305.8,116.8c0-0.1-0.1-0.3-0.3-0.3h-0.2c-0.7,0-1.2-0.6-1.2-1.2c0-0.6,0.5-1.2,1.2-1.2h0.2
			c0.2,0,0.3-0.1,0.3-0.3v-3.9c0-0.7,0.6-1.4,1.3-1.4c0.7,0,1.4,0.6,1.4,1.4v3.7c0,0.3,0.2,0.5,0.5,0.5h1.7c0.6,0,1.2,0.6,1.2,1.2
			c0,0.7-0.6,1.2-1.2,1.2H309c-0.3,0-0.5,0.2-0.5,0.5v10.2c0,0.3,0.2,0.5,0.5,0.5h2.2c0.6,0,1.2,0.6,1.2,1.2c0,0.7-0.6,1.2-1.2,1.2
			h-2.4c-1.6,0-2.9-1.3-2.9-3V116.8z"/>
	</g>
</g>
</svg>
