<?xml version="1.0" encoding="utf-8"?>
<!-- Generator: Adobe Illustrator 22.0.1, SVG Export Plug-In . SVG Version: 6.00 Build 0)  -->
<svg version="1.1" id="svg_motion" xmlns="http://www.w3.org/2000/svg" xmlns:xlink="http://www.w3.org/1999/xlink" x="0px" y="0px"
	 viewBox="0 0 87.9 157.6" style="enable-background:new 0 0 87.9 157.6;" xml:space="preserve">
<style type="text/css">
	.st0{fill:none;stroke:#33A44D;stroke-width:0.71;stroke-miterlimit:10;}
	.st1{fill:#2F9C49;}
</style>
<g id="motion">
	<path id="motion5" class="st0" d="M61,41.1c2.8,9.5-2.7,19.5-12.3,22.3c-1.4,0.4-2.9,0.7-4.4,0.7H43c-10-0.4-17.7-8.8-17.3-18.8
		s8.8-17.7,18.8-17.3C52.2,28.4,58.9,33.6,61,41.1L61,41.1z"/>
	<path id="motion4" class="st0" d="M26.3,41.1c9.7,0.4,17.4,8.4,17.4,18.1c0,1.7-0.2,3.3-0.7,4.9c-0.1,0.2-0.1,0.4-0.2,0.7
		s-0.2,0.4-0.2,0.7c-3.4,9.4-13.8,14.2-23.2,10.7C10,72.7,5.2,62.3,8.7,53C11.4,45.6,18.5,40.9,26.3,41.1z"/>
	<path id="motion3" class="st0" d="M15.6,74.2c3.4-9.3,13.7-14.2,23.1-10.8c1.4,0.5,2.7,1.2,3.9,2l0.6,0.4c0.2,0.1,0.4,0.3,0.6,0.4
		c1.4,1.1,2.5,2.3,3.5,3.7c5.8,8.1,3.9,19.4-4.2,25.2c-8.1,5.8-19.4,3.9-25.2-4.2C14.3,86.1,13.5,79.8,15.6,74.2L15.6,74.2z"/>
	<path id="motion2" class="st0" d="M43.7,94.6c-1.3-1-2.5-2.2-3.4-3.6c-4.5-6.2-4.6-14.7-0.2-21c1-1.5,2.2-2.7,3.6-3.8
		c0.2-0.2,0.4-0.3,0.6-0.4l0.6-0.4c8.3-5.5,19.5-3.3,25.1,5s3.3,19.5-5,25.1C58.4,99.8,49.8,99.5,43.7,94.6L43.7,94.6z"/>
	<path id="motion1" class="st0" d="M71.8,74.2c-8.3,5.6-19.5,3.3-25-4.9c-0.8-1.2-1.5-2.5-2-3.8c-0.1-0.2-0.2-0.4-0.2-0.7
		s-0.1-0.4-0.2-0.7C41.7,54.8,46.9,45,56.2,42c9.5-3.1,19.7,2,22.8,11.4C81.6,61.2,78.6,69.7,71.8,74.2z"/>
</g>
<g id="string">
	<path class="st1" d="M11.1,12.2c-0.8,0-1.4-0.7-1.4-1.5c0,0,0,0,0,0V5.8C9.6,5,10.2,4.4,11,4.3c0,0,0,0,0,0h3.3
		c0.2,0,0.4-0.2,0.4-0.4V3.4c0-0.2-0.2-0.4-0.4-0.4H8.6C8.2,3,7.9,2.6,7.9,2.2c0,0,0,0,0,0c0-0.4,0.3-0.8,0.7-0.8h5.8
		c0.2,0,0.3-0.1,0.3-0.3V0.8C14.7,0.4,15,0,15.4,0c0.4,0,0.7,0.4,0.7,0.8v0.3c0,0.2,0.1,0.3,0.3,0.3h5.9c0.4,0,0.7,0.4,0.7,0.8
		C23,2.6,22.7,3,22.3,3c0,0,0,0,0,0h-5.8c-0.2,0-0.4,0.2-0.4,0.4v0.5c0,0.2,0.1,0.4,0.4,0.4h3.4c0.8,0,1.4,0.7,1.4,1.5c0,0,0,0,0,0
		v4.8c0,0.8-0.6,1.5-1.4,1.6h-2.1c-0.1,0-0.1,0.1-0.1,0.2c0,0,0,0.1,0,0.1l4.2,4c0.2,0.2,0.2,0.5,0,0.7c-0.1,0.1-0.2,0.1-0.3,0.1
		c-0.7,0-1.4-0.3-2-0.8l-3.3-3.2c-0.1-0.1-0.2-0.1-0.2,0c0,0,0,0.1,0,0.1v3.6c0,0.4-0.3,0.8-0.7,0.8c-0.4,0-0.7-0.4-0.7-0.8v-3.5
		c0-0.1-0.1-0.2-0.2-0.2c0,0-0.1,0-0.1,0l-3,3c-0.5,0.5-1.2,0.8-1.9,0.8c-0.3,0-0.5-0.5-0.3-0.8l4-3.9c0.1-0.1,0.1-0.2,0-0.2
		c0,0-0.1-0.1-0.1-0.1L11.1,12.2z M14.7,6.2c0-0.2-0.2-0.4-0.4-0.4h-2.9c-0.2,0-0.4,0.2-0.4,0.4V7c0,0.2,0.1,0.4,0.4,0.4h2.9
		c0.2,0,0.4-0.2,0.4-0.4L14.7,6.2z M11.5,9.1c-0.2,0-0.4,0.2-0.4,0.4c0,0,0,0,0,0v0.7c0,0.2,0.1,0.4,0.4,0.4h2.9
		c0.2,0,0.4-0.2,0.4-0.4V9.5c0-0.2-0.2-0.4-0.4-0.4c0,0,0,0,0,0H11.5z M19.8,6.3c0-0.2-0.2-0.4-0.4-0.4h-2.9c-0.2,0-0.4,0.2-0.4,0.4
		V7c0,0.2,0.1,0.4,0.4,0.4h2.9c0.2,0,0.4-0.2,0.4-0.4V6.3z M16.1,10.3c0,0.2,0.1,0.4,0.4,0.4h2.9c0.2,0,0.4-0.2,0.4-0.4V9.5
		c0-0.2-0.2-0.4-0.4-0.4c0,0,0,0,0,0h-2.9c-0.2,0-0.4,0.2-0.4,0.4c0,0,0,0,0,0V10.3z"/>
	<path class="st1" d="M37.9,1.2c0,0.2,0.1,0.3,0.3,0.3c0,0,0,0,0,0h5.5c0.5,0,0.8,0.4,0.8,0.9c0,0.5-0.3,0.9-0.8,0.9H30.5
		c-0.5,0-0.8-0.4-0.8-0.9c0,0,0,0,0,0c0-0.5,0.3-0.9,0.8-0.9h5.4c0.2,0,0.3-0.1,0.3-0.3c0,0,0,0,0,0V1c-0.1-0.5,0.3-0.9,0.8-1
		c0,0,0,0,0,0c0.5,0,0.8,0.4,0.8,0.9L37.9,1.2z M31.3,16.9c-0.3,0-0.6-0.3-0.5-0.6c0-0.1,0-0.2,0.1-0.3l0.9-1.4
		c0.3-0.6,0.9-0.9,1.6-0.9c0.3,0,0.6,0.3,0.5,0.6c0,0.1,0,0.2-0.1,0.3l-0.9,1.3C32.6,16.5,32,16.9,31.3,16.9z M42.2,10
		c0,0.8-0.6,1.5-1.4,1.5c0,0,0,0,0,0h-2.5c-0.2,0-0.4,0.2-0.4,0.4v5.4c0.1,0.4-0.2,0.9-0.7,0.9c-0.4,0.1-0.9-0.2-0.9-0.7
		c0-0.1,0-0.2,0-0.3V12c0-0.2-0.1-0.4-0.4-0.4c0,0,0,0,0,0h-2.5c-0.8,0-1.4-0.7-1.4-1.5c0,0,0,0,0-0.1V6.5c-0.1-0.8,0.5-1.5,1.3-1.5
		c0,0,0,0,0,0h7.4c0.8,0,1.4,0.7,1.4,1.5c0,0,0,0,0,0L42.2,10z M33.9,6.8c-0.2,0-0.4,0.2-0.4,0.4c0,0,0,0,0,0v2.2
		c0,0.2,0.2,0.4,0.4,0.4c0,0,0,0,0,0h6.4c0.2,0,0.4-0.2,0.4-0.4c0,0,0,0,0,0V7.2c0-0.2-0.1-0.4-0.3-0.4c0,0,0,0,0,0H33.9z
		 M40.4,14.6c-0.2-0.3-0.1-0.7,0.2-0.8c0.1,0,0.2-0.1,0.2-0.1c0.6,0,1.2,0.4,1.6,0.9l0.9,1.4c0.2,0.3,0.1,0.6-0.1,0.8
		c-0.1,0.1-0.2,0.1-0.3,0.1c-0.7,0-1.3-0.4-1.6-0.9L40.4,14.6z"/>
	<path class="st1" d="M65.2,4.6c0.5,0,0.8,0.4,0.8,0.9c0,0.5-0.3,0.9-0.8,0.9c0,0,0,0,0,0h-5c-0.1,0-0.2,0.1-0.2,0.2
		c0,0,0,0.1,0,0.1l5.4,10c0.2,0.3,0.1,0.7-0.2,0.8c-0.1,0-0.2,0.1-0.3,0.1c-0.6,0-1.1-0.4-1.4-0.9l-4.8-9c0-0.1-0.2-0.1-0.3-0.1
		c0,0-0.1,0.1-0.1,0.1l-4.2,9c-0.2,0.5-0.8,0.9-1.3,0.9c-0.3,0-0.6-0.3-0.6-0.7c0-0.1,0-0.2,0.1-0.2L57,6.8c0.1-0.1,0-0.3-0.1-0.3
		c0,0-0.1,0-0.1,0h-5C51.3,6.4,51,6,51,5.5c0-0.5,0.4-0.9,0.8-0.9h5.5c0.2,0,0.4-0.2,0.4-0.4c0,0,0,0,0,0V1.1c0-0.5,0.4-0.8,0.8-0.8
		c0.5,0,0.8,0.4,0.8,0.8c0,0,0,0,0,0v3.1c0,0.2,0.1,0.4,0.4,0.4c0,0,0,0,0,0H65.2z"/>
	<path class="st1" d="M85,2.5c-0.1,0.1,0,0.3,0.1,0.3c0,0,0.1,0,0.1,0h1.4c0.8,0,1.4,0.7,1.4,1.5c0,0,0,0,0,0v1.2
		c0.1,0.5-0.2,0.9-0.7,0.9s-0.9-0.2-0.9-0.7c0-0.1,0-0.2,0-0.3V5.2c0-0.2-0.1-0.4-0.3-0.4c0,0,0,0,0,0H74.1c-0.2,0-0.4,0.2-0.3,0.4
		c0,0,0,0,0,0v0.5c0.1,0.5-0.2,0.9-0.7,0.9s-0.9-0.2-0.9-0.7c0-0.1,0-0.2,0-0.3V4.4c0-0.8,0.6-1.5,1.4-1.5c0,0,0,0,0,0h8.9
		c0.2,0,0.4-0.1,0.5-0.4l0.7-1.5c0.3-0.6,0.8-1,1.5-1c0.4,0,0.6,0.3,0.6,0.7c0,0.1,0,0.2-0.1,0.3L85,2.5z M82.7,6
		c0.5,0,0.8,0.5,0.8,0.9c0,0.1-0.1,0.3-0.1,0.4l-2.1,3.6c-0.1,0.1,0,0.2,0.1,0.3c0,0,0.1,0,0.1,0h5.3c0.5,0.1,0.8,0.5,0.8,1
		c-0.1,0.4-0.4,0.7-0.8,0.8h-5.8c-0.2,0-0.4,0.2-0.4,0.4v3.4c0,0.8-0.6,1.5-1.4,1.5h-0.8c-0.5,0-0.8-0.4-0.8-0.9
		c0-0.5,0.3-0.9,0.8-0.9c0,0,0,0,0,0h0.3c0.2,0,0.3-0.2,0.3-0.3v-2.8c0-0.2-0.1-0.4-0.4-0.4c0,0,0,0,0,0h-5.5
		c-0.5-0.1-0.8-0.5-0.8-1c0.1-0.4,0.4-0.7,0.8-0.8h5.5c0.2,0,0.4-0.2,0.4-0.4c0,0,0,0,0,0v-0.4c0-0.7,0.5-1.2,1.1-1.2c0,0,0,0,0,0
		c0.2,0,0.4-0.1,0.5-0.3L81,8.1c0.1-0.2,0-0.4-0.2-0.4h-4.3c-0.5,0-0.8-0.4-0.8-0.9C75.7,6.4,76,6,76.5,6c0,0,0,0,0,0H82.7z M76.4,1
		c0.2,0.3,0,0.8-0.3,0.9C76,2,75.9,2,75.8,2h-0.1c-0.6,0-1.1-0.4-1.3-1c-0.1-0.3,0-0.7,0.4-0.9c0.1,0,0.1,0,0.2,0h0.1
		C75.7,0.1,76.2,0.4,76.4,1z M80.9,1c0.2,0.4,0,0.8-0.4,0.9c-0.1,0-0.2,0-0.2,0.1h-0.1c-0.6,0-1.1-0.4-1.2-1
		c-0.1-0.4,0.1-0.8,0.5-0.9c0.1,0,0.1,0,0.2,0l0,0C80.3,0.1,80.8,0.5,80.9,1z"/>
	<path class="st1" d="M20.1,131.9c0,0.3,0.2,0.6,0.5,0.6c0,0,0,0,0,0h3.1c0.8,0.1,1.4,0.8,1.3,1.6c-0.1,0.7-0.6,1.3-1.3,1.3H2
		c-0.8-0.1-1.4-0.8-1.3-1.6c0.1-0.7,0.6-1.3,1.3-1.3h4.4c0.3,0,0.6-0.3,0.6-0.6l1-8.6c0-0.3-0.1-0.6-0.4-0.6c0,0,0,0-0.1,0H5.4
		c-0.8,0-1.3-0.7-1.3-1.5c0-0.8,0.5-1.4,1.3-1.4c0,0,0,0,0,0H8c0.4,0,0.6-0.3,0.7-0.7l0.7-5.5c0-0.3-0.2-0.6-0.5-0.6c0,0,0,0,0,0
		H3.7c-0.8-0.1-1.4-0.8-1.3-1.6c0.1-0.7,0.6-1.3,1.3-1.3h18.4c0.8,0.1,1.4,0.8,1.3,1.6c-0.1,0.7-0.6,1.3-1.3,1.3h-9.5
		c-0.3,0-0.6,0.3-0.6,0.6l-0.7,5.5c0,0.3,0.2,0.6,0.5,0.7h6.6c1.2,0.1,2.1,1.1,2,2.3c0,0,0,0,0,0L20.1,131.9z M11.4,122.7
		c-0.3,0-0.6,0.3-0.6,0.6L9.7,132c0,0.3,0.2,0.6,0.5,0.6c0,0,0,0,0,0h6.7c0.3,0,0.6-0.3,0.6-0.6l0.3-8.6c0-0.3-0.2-0.6-0.5-0.6
		c0,0,0,0,0,0L11.4,122.7z"/>
	<path class="st1" d="M34.7,111.4c0-1.3,1-2.3,2.3-2.4h13c1.2,0.1,2.2,1.1,2.1,2.4V135c0,0.7-0.5,1.4-1.2,1.4c0,0,0,0,0,0
		c-0.7,0-1.3-0.7-1.3-1.4v-7.5c0-0.3-0.2-0.6-0.5-0.6c0,0,0,0,0,0H36.4c-0.3,0-0.6,0.3-0.6,0.6l-0.7,7.5c0,0.8-0.6,1.4-1.4,1.4
		c-0.7,0-1.2-0.6-1.1-1.3c0,0,0,0,0-0.1L34.7,111.4z M36.2,123.3c0,0.3,0.2,0.6,0.5,0.6c0,0,0,0,0.1,0H49c0.3,0,0.6-0.3,0.5-0.6
		v-3.4c0-0.3-0.2-0.6-0.5-0.6c0,0,0,0,0,0H37.1c-0.3,0-0.6,0.3-0.6,0.6L36.2,123.3z M49.6,112.4c0-0.3-0.2-0.6-0.5-0.6c0,0,0,0,0,0
		H37.7c-0.3,0-0.6,0.3-0.6,0.6l-0.3,3.2c0,0.3,0.2,0.6,0.5,0.6c0,0,0,0,0.1,0H49c0.3,0,0.6-0.3,0.6-0.6c0,0,0,0,0,0L49.6,112.4z"/>
	<path class="st1" d="M67.1,108.7h4.5c0.8,0.1,1.4,0.8,1.3,1.6c0,0.2-0.1,0.3-0.1,0.4l-2.3,5.1c-0.5,1.3-1.3,2.5-2.1,3.6l-4.9,6.3
		c-0.5,0.7-1.4,1.1-2.2,1.1c-0.4,0-0.8-0.4-0.7-0.9c0-0.2,0.1-0.3,0.2-0.4l4.6-5.9c0.1-0.2,0.1-0.4-0.1-0.6l-2.3-1.7
		c-0.1-0.1-0.1-0.1-0.2,0c-0.4,0.6-1,1-1.8,1H61c-0.5-0.1-0.8-0.5-0.8-1c0-0.1,0-0.2,0.1-0.3l3.8-6.7
		C64.7,109.3,65.9,108.7,67.1,108.7z M64.1,134.3l0.9-2c0.3-0.8,1.1-1.4,2-1.4c0.6,0.1,1,0.6,1,1.2c0,0.1,0,0.2-0.1,0.3l-0.9,2
		c-0.3,0.8-1.1,1.4-2,1.4c-0.6,0-1-0.5-1-1C64,134.6,64,134.5,64.1,134.3L64.1,134.3z M80.2,128.1h-5.8c-0.3,0-0.4,0.2-0.4,0.4v7.4
		c0,0.7-0.5,1.3-1.2,1.4c-0.7-0.1-1.3-0.7-1.3-1.4v-7.4c0-0.3-0.2-0.4-0.4-0.4h-5.8c-0.7-0.1-1.3-0.7-1.2-1.5
		c0.1-0.7,0.6-1.2,1.2-1.2h14.9c0.7,0.1,1.3,0.7,1.2,1.5C81.4,127.6,80.9,128.1,80.2,128.1L80.2,128.1z M64.3,115.5l2.3,1.8
		c0.1,0.1,0.3,0.2,0.4,0.1c0,0,0.1-0.1,0.1-0.1l0.4-0.5c0.2-0.3,0.4-0.5,0.5-0.8c0.1-0.2,0-0.4-0.2-0.6l-2.5-1.8
		c-0.1-0.1-0.3-0.1-0.4,0c0,0,0,0.1-0.1,0.1l-0.7,1.2C64.1,115.1,64.1,115.4,64.3,115.5z M70,110.9h-3.2c-0.2,0-0.4,0.1-0.5,0.3
		c-0.1,0.1-0.1,0.3,0,0.3c0,0,0,0,0,0l2.5,1.8c0.1,0.2,0.3,0.1,0.4-0.1l0.9-2c0.1-0.1,0-0.2-0.1-0.3C70.1,110.9,70,110.9,70,110.9z
		 M76.9,123.2H69c-0.8-0.1-1.3-0.8-1.2-1.5c0.1-0.6,0.6-1.1,1.2-1.2h7.9c0.8,0.1,1.3,0.8,1.2,1.5C78,122.7,77.5,123.2,76.9,123.2
		L76.9,123.2z M74.2,114.8c-0.3-0.4-0.1-1,0.3-1.2c0.1-0.1,0.2-0.1,0.4-0.1c0.9,0,1.7,0.5,2.3,1.2l0.9,1.3c0.1,0.2,0.2,0.2,0.3,0
		l1.9-3.9c0.1-0.2,0-0.3-0.2-0.3h-3.4c-0.7-0.1-1.3-0.8-1.1-1.5c0.1-0.6,0.6-1.1,1.1-1.1h5.7c0.8,0.1,1.3,0.8,1.2,1.6
		c0,0.1-0.1,0.3-0.1,0.4l-3.4,7c-0.1,0.2-0.1,0.5,0.1,0.8l4.8,5.9c0.3,0.4,0.2,0.9-0.1,1.2c-0.1,0.1-0.3,0.2-0.4,0.2
		c-1,0-1.9-0.5-2.5-1.2l-4.8-5.7L74.2,114.8z M78.8,130.9c0.9,0,1.8,0.5,2.2,1.4l1.1,2c0.3,0.5,0.1,1.1-0.3,1.4
		c-0.1,0.1-0.3,0.1-0.5,0.1c-0.9,0-1.7-0.5-2.2-1.3l-1.1-2c-0.3-0.5-0.1-1.2,0.5-1.4C78.6,130.9,78.7,130.9,78.8,130.9L78.8,130.9z"
		/>
	<path class="st1" d="M9.9,144.3c-0.1,0.1,0,0.3,0.1,0.3h1.2c0.6,0,1.1,0.6,1.1,1.2c0,0,0,0,0,0v0.6c0,0.3-0.3,0.6-0.6,0.6
		s-0.6-0.3-0.6-0.6c0,0,0,0,0,0v-0.2c0-0.1-0.1-0.2-0.2-0.3H1.5c-0.2,0-0.3,0.1-0.3,0.3c0,0,0,0,0,0v0.4c0,0.4-0.3,0.7-0.6,0.7
		c0,0,0,0,0,0c-0.4,0-0.6-0.3-0.6-0.7v-0.9c0-0.6,0.5-1.2,1.1-1.2h1.2c0.1,0,0.2-0.1,0.2-0.2c0,0,0,0,0-0.1l-0.2-0.4
		c-0.1-0.2,0-0.5,0.2-0.6c0.1,0,0.1-0.1,0.2-0.1c0.5,0,0.9,0.3,1.1,0.7l0.2,0.4c0.1,0.2,0.3,0.3,0.4,0.3h1c0.2,0,0.3-0.2,0.3-0.3
		c0,0,0,0,0,0v-0.6c0-0.3,0.2-0.7,0.5-0.7c0.3,0,0.7,0.2,0.7,0.5c0,0.1,0,0.1,0,0.2v0.6c0,0.2,0.1,0.3,0.3,0.3c0,0,0,0,0,0h0.8
		c0.2,0,0.4-0.1,0.5-0.3l0.3-0.4c0.3-0.4,0.7-0.7,1.2-0.7c0.2,0,0.4,0.3,0.4,0.5c0,0.1,0,0.1-0.1,0.2L9.9,144.3z M7.1,150.5
		c-0.2,0-0.3,0.2-0.3,0.3v0.6c0,0.2,0.1,0.3,0.3,0.3c0,0,0,0,0,0h2.6c0.6,0,1.1,0.6,1.1,1.2v2.7c0,0.3-0.2,0.6-0.6,0.6
		c-0.3,0-0.6-0.3-0.6-0.6c0,0,0,0,0,0v-2.3c0-0.2-0.1-0.3-0.3-0.3H7.2c-0.2,0-0.3,0.2-0.3,0.3v3.4c0,0.3-0.2,0.7-0.5,0.7
		c-0.3,0-0.7-0.2-0.7-0.5c0-0.1,0-0.1,0-0.2v-3.4c0-0.2-0.1-0.3-0.3-0.3H3c-0.2,0-0.3,0.2-0.3,0.3v2.3c0,0.3-0.2,0.6-0.6,0.6
		c-0.3,0-0.6-0.3-0.6-0.6v-2.7c0-0.7,0.5-1.2,1.1-1.2c0,0,0,0,0,0h2.6c0.2,0,0.3-0.1,0.3-0.3c0,0,0,0,0,0v-0.6
		c0-0.2-0.1-0.3-0.3-0.3H3.5c-0.6,0-1.1-0.6-1.1-1.2V148c0-0.7,0.5-1.2,1.1-1.2H9c0.6,0,1.1,0.6,1.1,1.2v1.3c0,0.6-0.5,1.2-1.1,1.2
		H7.1z M3.8,148c-0.2,0-0.3,0.2-0.3,0.3v0.6c0,0.2,0.1,0.3,0.3,0.3c0,0,0,0,0,0h4.8c0.2,0,0.3-0.1,0.3-0.3c0,0,0,0,0,0v-0.6
		c0-0.2-0.1-0.3-0.3-0.3H3.8z"/>
	<path class="st1" d="M20.3,143.9c0.1-0.4,0.5-0.7,1-0.7c0.3,0,0.5,0.3,0.5,0.6c0,0.1,0,0.1,0,0.2l-0.5,1.4
		c-0.1,0.2-0.1,0.4-0.1,0.6v10.8c0,0.4-0.2,0.7-0.6,0.7s-0.7-0.2-0.7-0.6c0-0.1,0-0.1,0-0.2v-7.4l0,0c-0.1,0.2-0.3,0.3-0.5,0.3h-0.4
		c-0.3,0-0.5-0.3-0.5-0.6c0-0.1,0-0.1,0-0.2L20.3,143.9z M31.5,150.1c0,0.4-0.3,0.7-0.6,0.7c0,0,0,0,0,0H28c-0.2,0-0.3,0.2-0.3,0.3
		c0,0,0,0,0,0v3.8c0,0.2,0.1,0.3,0.3,0.3c0,0,0,0,0,0h2.4c0.4,0,0.7,0.3,0.7,0.7c0,0.4-0.3,0.7-0.6,0.7c0,0,0,0,0,0h-6.8
		c-0.4,0-0.7-0.3-0.7-0.7c0,0,0,0,0,0c0-0.4,0.3-0.7,0.7-0.7h2.4c0.2,0,0.3-0.1,0.3-0.3c0,0,0,0,0,0v-3.8c0-0.2-0.1-0.3-0.3-0.3
		c0,0,0,0,0,0h-2.9c-0.4-0.1-0.7-0.4-0.6-0.9c0.1-0.3,0.3-0.6,0.6-0.6h2.9c0.2,0,0.3-0.1,0.3-0.3v-2.8c0-0.2-0.1-0.3-0.3-0.3
		c0,0,0,0,0,0l-1.9,0.3c-0.3,0-0.6-0.2-0.7-0.6c0,0,0-0.1,0-0.1c0-0.4,0.3-0.8,0.7-0.8l5.5-0.7c0.3,0,0.6,0.2,0.7,0.6
		c0,0,0,0.1,0,0.1c0,0.4-0.3,0.8-0.7,0.8l-1.7,0.2c-0.2,0-0.3,0.2-0.3,0.4v3c0,0.2,0.1,0.3,0.3,0.3h2.9
		C31.3,149.4,31.6,149.7,31.5,150.1C31.6,150.1,31.6,150.1,31.5,150.1z"/>
	<path class="st1" d="M50,152.1c0,0.3-0.3,0.6-0.6,0.7h-2.2c-0.2,0-0.3,0.1-0.4,0.3l-0.8,1.8c-0.1,0.1,0,0.3,0.1,0.4c0,0,0,0,0,0
		l2,0.6c0.4,0.1,0.6,0.5,0.6,0.9c0,0.3-0.2,0.5-0.5,0.5c-0.1,0-0.1,0-0.2,0l-3-0.9c-0.2-0.1-0.4-0.1-0.6,0l-5.4,1.2
		c-0.3,0-0.6-0.2-0.6-0.5c0,0,0-0.1,0-0.1c0-0.4,0.2-0.7,0.6-0.8l2.7-0.6c0.1,0,0.1-0.1,0-0.1l-1-0.3c-0.6-0.2-0.9-0.9-0.7-1.5
		l0.2-0.5c0.1-0.1,0-0.2-0.1-0.3c0,0,0,0-0.1,0h-2.4c-0.3,0-0.6-0.3-0.6-0.7c0-0.3,0.3-0.6,0.6-0.7c0,0,0,0,0,0h3
		c0.1,0,0.2-0.1,0.2-0.2c0.1-0.4,0.4-0.6,0.8-0.7h0.1c0.3,0,0.5,0.3,0.4,0.5c0,0,0,0.1,0,0.1c0,0.1,0,0.1,0.1,0.2c0,0,0,0,0.1,0h7
		C49.7,151.5,50,151.8,50,152.1z M39,149.5c-0.2,0-0.3-0.2-0.3-0.4c0-0.1,0.1-0.2,0.1-0.2l2.2-1.4c0.1-0.1,0-0.2,0-0.2h-3
		c-0.4,0-0.7-0.3-0.7-0.7c0-0.4,0.3-0.7,0.7-0.7h4.7c0.2,0,0.3-0.1,0.3-0.3v-0.4c0-0.2-0.1-0.3-0.3-0.3l-2.8,0.1
		c-0.3,0-0.6-0.3-0.6-0.6c0,0,0,0,0,0c0-0.4,0.2-0.7,0.6-0.7l7.4-0.4c0.3,0,0.6,0.3,0.6,0.6c0,0,0,0,0,0c0,0.4-0.2,0.7-0.6,0.7
		l-2.8,0.1c-0.2,0-0.3,0.2-0.3,0.3v0.4c0,0.2,0.1,0.3,0.3,0.3h4.7c0.4,0,0.7,0.3,0.7,0.7c0,0.4-0.3,0.7-0.7,0.7h-2.8
		c0,0-0.1,0.1,0,0.1c0,0,0,0,0,0l2.2,1.5c0.2,0.1,0.2,0.3,0.1,0.5c-0.1,0.1-0.1,0.1-0.2,0.1h-0.2c-0.7,0-1.5-0.2-2.1-0.6l-1.7-1.1
		c-0.1,0-0.2,0-0.2,0.1c0,0,0,0.1,0,0.1v1.4c0,0.3-0.3,0.6-0.6,0.6c-0.3,0-0.6-0.3-0.6-0.6V148c0-0.1-0.1-0.2-0.2-0.2
		c0,0-0.1,0-0.1,0l-1.5,1c-0.6,0.4-1.3,0.6-2.1,0.6L39,149.5z M44.4,154.7c0.2,0,0.3,0,0.4-0.2l0.6-1.4c0-0.1,0-0.2-0.1-0.3
		c0,0-0.1,0-0.1,0h-3.1c-0.2,0-0.4,0.1-0.4,0.3l-0.2,0.5c0,0.2,0,0.3,0.2,0.4L44.4,154.7z"/>
	<path class="st1" d="M66.2,147.5c0.7,0,1.2,0.6,1.1,1.2c0,0,0,0,0,0v5.2c0,0.6-0.5,1.2-1.1,1.2c0,0,0,0,0,0h-7.4
		c-0.6,0-1.1-0.6-1.1-1.2c0,0,0,0,0,0v-5.2c0-0.7,0.5-1.2,1.1-1.2c0,0,0,0,0,0L66.2,147.5z M58.2,157.3c-0.2,0-0.4-0.2-0.4-0.5
		c0-0.1,0-0.2,0.1-0.2c0.3-0.4,0.7-0.7,1.2-0.7h0.3c0.2,0,0.4,0.2,0.4,0.4c0,0.1,0,0.2-0.1,0.2c-0.3,0.4-0.7,0.7-1.2,0.7H58.2z
		 M65.7,143.1c0.6,0,1.1,0.6,1.1,1.2v1.2c0,0.7-0.5,1.2-1.1,1.2h-6.6c-0.7,0-1.2-0.6-1.2-1.2c0,0,0,0,0,0v-1.2
		c0-0.7,0.5-1.2,1.1-1.2L65.7,143.1z M66.2,149.1c0-0.2-0.1-0.3-0.3-0.3H59c-0.2,0-0.3,0.2-0.3,0.3v0.1c0,0.2,0.1,0.3,0.3,0.3h6.9
		c0.2,0,0.3-0.2,0.3-0.3L66.2,149.1z M66.2,151.3c0-0.2-0.1-0.3-0.3-0.3H59c-0.2,0-0.3,0.2-0.3,0.3v0.1c0,0.2,0.1,0.3,0.3,0.3h6.9
		c0.2,0,0.3-0.2,0.3-0.3L66.2,151.3z M58.7,153.6c0,0.2,0.1,0.3,0.3,0.3h6.9c0.2,0,0.3-0.2,0.3-0.3v-0.1c0-0.2-0.1-0.3-0.3-0.3H59
		c-0.2,0-0.3,0.2-0.3,0.3L58.7,153.6z M65.4,145.4c0.2,0,0.3-0.2,0.3-0.3v-0.4c0-0.2-0.1-0.3-0.3-0.3h-5.8c-0.2,0-0.3,0.2-0.3,0.3
		v0.4c0,0.2,0.1,0.3,0.3,0.3H65.4z M66,155.9c0.5,0,0.9,0.3,1.2,0.7c0.1,0.2,0.1,0.5-0.1,0.6c-0.1,0-0.1,0.1-0.2,0.1h-0.3
		c-0.5,0-0.9-0.3-1.2-0.7c-0.1-0.2-0.1-0.5,0.1-0.6c0.1,0,0.1-0.1,0.2-0.1H66z"/>
	<path class="st1" d="M81.4,144.7c-0.1-0.1-0.3-0.1-0.4,0c0,0,0,0,0,0l-3.6,3.5c-0.5,0.5-1.1,0.7-1.8,0.8c-0.3,0-0.5-0.5-0.2-0.8
		l5.1-4.9c0.5-0.5,1.2-0.5,1.7,0c0,0,0,0,0,0l4.9,4.9c0.2,0.2,0.2,0.4,0,0.6c-0.1,0.1-0.1,0.1-0.2,0.1c-0.7,0-1.3-0.3-1.7-0.8
		L81.4,144.7z M76.2,152.3c-0.4-0.1-0.7-0.4-0.6-0.9c0.1-0.3,0.3-0.6,0.6-0.6h10c0.4,0.1,0.7,0.4,0.6,0.9c-0.1,0.3-0.3,0.6-0.6,0.6
		h-5.7c-0.2,0-0.3,0.1-0.4,0.3l-0.9,2.2c0,0.1,0,0.2,0.1,0.3c0,0,0.1,0,0.1,0l4.2-0.2c0.1,0,0.2-0.1,0.2-0.2c0,0,0,0,0-0.1l-0.1-0.3
		c-0.1-0.3,0-0.6,0.3-0.7c0.1,0,0.1,0,0.2,0c0.5,0,0.9,0.3,1,0.8l0.8,2.5c0.1,0.3,0,0.6-0.3,0.7c-0.1,0-0.1,0-0.2,0
		c-0.5,0-0.9-0.3-1-0.8l-0.1-0.2c0-0.1-0.2-0.2-0.3-0.2l-6,0.3c-0.4,0-0.7-0.4-0.7-0.8c0-0.1,0-0.2,0.1-0.3l1.3-3
		c0-0.1,0-0.2-0.1-0.3c0,0,0,0-0.1,0L76.2,152.3z M78.7,149.2c-0.4,0-0.7-0.4-0.6-0.8c0-0.3,0.3-0.6,0.6-0.6h4.7
		c0.4,0,0.7,0.4,0.6,0.8c0,0.3-0.3,0.6-0.6,0.6H78.7z"/>
</g>
</svg>
